<svg viewBox="0 0 173.484 112" xmlns="http://www.w3.org/2000/svg" xmlns:xlink="http://www.w3.org/1999/xlink" width="173.484375" height="112.000000" fill="none">
	<rect id="homepage_logo-04" width="173.484070" height="111.999992" x="0.000000" y="0.000000" />
	<g id="Group 12">
		<path id="Vector 49" d="M99.3679 55.4715L74.2629 55.4715C72.0688 55.4715 70.29 53.7372 70.29 51.5975C70.29 49.458 72.0686 47.7236 74.2629 47.7236L99.3679 47.7236C101.562 47.7236 103.341 49.458 103.341 51.5975C103.341 53.7372 101.562 55.4715 99.3679 55.4715Z" fill="rgb(55,42,172)" fill-rule="nonzero" />
		<g id="Group 13">
			<path id="Vector 50" d="M111.884 51.5986C110.787 51.5986 109.695 51.158 108.91 50.2944C107.455 48.6934 107.606 46.2449 109.248 44.8257L121.902 33.8862L109.248 22.9468C107.606 21.5274 107.455 19.079 108.91 17.4779C110.366 15.877 112.877 15.7297 114.518 17.1489L130.526 30.9873C131.377 31.7226 131.864 32.7778 131.864 33.8862C131.864 34.9946 131.377 36.0498 130.526 36.7852L114.518 50.6235C113.762 51.2774 112.821 51.5986 111.884 51.5986Z" fill="rgb(55,42,172)" fill-rule="nonzero" />
			<path id="Vector 51" d="M61.746 51.5986C60.8089 51.5986 59.8683 51.2775 59.112 50.6235L43.1039 36.7851C42.2533 36.0498 41.7666 34.9946 41.7666 33.8862C41.7666 32.7778 42.2533 31.7226 43.1039 30.9873L59.112 17.1489C60.7539 15.7297 63.2648 15.8771 64.7203 17.4779C66.1758 19.0791 66.0248 21.5275 64.3829 22.9468L51.7281 33.8862L64.3829 44.8257C66.0248 46.245 66.1758 48.6935 64.7202 50.2944C63.9354 51.1579 62.8431 51.5986 61.746 51.5986Z" fill="rgb(55,42,172)" fill-rule="nonzero" />
		</g>
		<g id="Group 14">
			<path id="Vector 52" d="M37.1435 61.2204C36.5086 60.843 21.5938 51.7354 21.5938 30.6102C21.5938 9.48525 36.5086 0.377365 37.1434 0L41.7408 7.35472L41.7664 7.33926C41.3033 7.62335 30.4269 14.4786 30.4269 30.6102C30.4269 46.7419 41.3035 53.597 41.7664 53.881L41.7406 53.8657L37.1435 61.2204Z" fill="rgb(55,42,172)" fill-rule="nonzero" />
			<path id="Vector 53" d="M136.487 61.2204L131.89 53.8657L131.864 53.881C132.327 53.597 143.204 46.7418 143.204 30.6102C143.204 14.4787 132.327 7.62335 131.864 7.33926L131.89 7.35472L136.487 0C137.122 0.377365 152.037 9.48525 152.037 30.6102C152.037 51.7354 137.122 60.843 136.487 61.2204Z" fill="rgb(55,42,172)" fill-rule="nonzero" />
		</g>
	</g>
	<g id="Group 15">
		<path id="Vector 54" d="M8.97287 99.4893L8.76781 97.7457L8.67933 97.7457C7.8872 98.8316 6.36356 99.8039 4.33911 99.8039C1.46645 99.8039 0 97.8309 0 95.8295C0 92.4842 3.04962 90.6543 8.53257 90.6827L8.53257 90.3964C8.53257 89.2527 8.20995 87.1944 5.3071 87.1944C3.98742 87.1944 2.61041 87.5952 1.61335 88.2235L1.02628 86.565C2.19933 85.8221 3.89991 85.3359 5.68801 85.3359C10.0282 85.3359 11.0836 88.2235 11.0836 90.9973L11.0836 96.1724C11.0836 97.373 11.1419 98.5452 11.3188 99.4891L8.97287 99.4891L8.97287 99.4893ZM8.59086 92.4274C5.77648 92.3695 2.58023 92.8557 2.58023 95.5432C2.58023 97.1732 3.69388 97.9456 5.01466 97.9456C6.86105 97.9456 8.03396 96.8017 8.44409 95.6295C8.53257 95.3717 8.59086 95.0864 8.59086 94.8287L8.59086 92.4274Z" fill="rgb(18,18,18)" fill-rule="nonzero" />
		<path id="Vector 55" d="M31.5199 95.7144C31.5199 97.1444 31.549 98.402 31.6365 99.489L29.3498 99.489L29.203 97.2297L29.1436 97.2297C28.4703 98.3451 26.9746 99.8036 24.4527 99.8036C22.2242 99.8036 19.5566 98.6029 19.5566 93.7414L19.5566 85.6504L22.1358 85.6504L22.1358 93.3131C22.1358 95.9438 22.9581 97.7158 25.3029 97.7158C27.0328 97.7158 28.2349 96.5436 28.7043 95.4293C28.851 95.0568 28.9384 94.6001 28.9384 94.1423L28.9384 85.6504L31.5196 85.6504L31.5196 95.7144L31.5199 95.7144Z" fill="rgb(18,18,18)" fill-rule="nonzero" />
		<path id="Vector 56" d="M43.3062 81.6768L43.3062 85.6512L47.0001 85.6512L47.0001 87.5663L43.3062 87.5663L43.3062 95.029C43.3062 96.7442 43.8037 97.7166 45.24 97.7166C45.9155 97.7166 46.414 97.6314 46.7357 97.5451L46.8533 99.433C46.3547 99.6329 45.5638 99.776 44.5666 99.776C43.3645 99.776 42.3965 99.4035 41.7804 98.7175C41.0476 97.9746 40.7833 96.7445 40.7833 95.1156L40.7833 87.5666L38.584 87.5666L38.584 85.6515L40.7832 85.6515L40.7832 82.3347L43.3062 81.6768Z" fill="rgb(18,18,18)" fill-rule="nonzero" />
		<path id="Vector 57" d="M66.9664 92.4556C66.9664 97.5728 63.3298 99.8037 59.9004 99.8037C56.0588 99.8037 53.0977 97.0583 53.0977 92.6841C53.0977 88.052 56.2056 85.3359 60.1346 85.3359C64.2103 85.3359 66.9664 88.2235 66.9664 92.4556ZM55.7068 92.5988C55.7068 95.6294 57.496 97.917 60.0169 97.917C62.4794 97.917 64.3269 95.6577 64.3269 92.5408C64.3269 90.1963 63.1248 87.2226 60.0752 87.2226C57.0255 87.2227 55.7068 89.968 55.7068 92.5988Z" fill="rgb(18,18,18)" fill-rule="nonzero" />
		<path id="Vector 58" d="M74.6176 89.3957C74.6176 87.9666 74.5894 86.7944 74.501 85.6507L76.7886 85.6507L76.9343 87.9383L76.9937 87.9383C77.6972 86.6229 79.3387 85.3359 81.6846 85.3359C83.6497 85.3359 86.6993 86.4798 86.6993 91.2256L86.6993 99.4891L84.1181 99.4891L84.1181 91.5118C84.1181 89.282 83.2678 87.4226 80.8343 87.4226C79.1336 87.4226 77.8139 88.5959 77.3736 89.9965C77.2571 90.3111 77.1989 90.7394 77.1989 91.1687L77.1989 99.4891L74.6177 99.4891L74.6177 89.3957L74.6176 89.3957Z" fill="rgb(18,18,18)" fill-rule="nonzero" />
		<path id="Vector 59" d="M108.131 92.4556C108.131 97.5728 104.495 99.8037 101.064 99.8037C97.2229 99.8037 94.2617 97.0583 94.2617 92.6841C94.2617 88.052 97.3696 85.3359 101.3 85.3359C105.375 85.3359 108.131 88.2235 108.131 92.4556ZM96.8712 92.5988C96.8712 95.6294 98.6604 97.917 101.181 97.917C103.645 97.917 105.492 95.6577 105.492 92.5408C105.492 90.1963 104.29 87.2226 101.24 87.2226C98.1909 87.2227 96.8712 89.968 96.8712 92.5988Z" fill="rgb(18,18,18)" fill-rule="nonzero" />
		<path id="Vector 60" d="M115.784 89.3955C115.784 87.9665 115.754 86.7943 115.665 85.6505L117.923 85.6505L118.041 87.8804L118.127 87.8804C118.919 86.565 120.24 85.3359 122.584 85.3359C124.52 85.3359 125.986 86.4798 126.603 88.1098L126.661 88.1098C127.101 87.3373 127.658 86.7365 128.245 86.3082C129.096 85.6789 130.032 85.3359 131.381 85.3359C133.259 85.3359 136.043 86.5367 136.043 91.3402L136.043 99.4891L133.522 99.4891L133.522 91.6549C133.522 88.9958 132.525 87.3943 130.442 87.3943C128.977 87.3943 127.833 88.4528 127.395 89.6819C127.276 90.0249 127.188 90.4827 127.188 90.9404L127.188 99.4891L124.667 99.4891L124.667 91.197C124.667 88.9957 123.67 87.3941 121.706 87.3941C120.093 87.3941 118.919 88.6526 118.509 89.91C118.363 90.2825 118.304 90.7108 118.304 91.1402L118.304 99.4889L115.783 99.4889L115.783 89.3955L115.784 89.3955Z" fill="rgb(18,18,18)" fill-rule="nonzero" />
		<path id="Vector 61" d="M156.51 95.7144C156.51 97.1444 156.538 98.402 156.626 99.489L154.339 99.489L154.194 97.2297L154.134 97.2297C153.46 98.3451 151.965 99.8036 149.444 99.8036C147.214 99.8036 144.547 98.6029 144.547 93.7414L144.547 85.6504L147.126 85.6504L147.126 93.3131C147.126 95.9438 147.948 97.7158 150.294 97.7158C152.023 97.7158 153.225 96.5436 153.696 95.4293C153.842 95.0568 153.929 94.6001 153.929 94.1423L153.929 85.6504L156.51 85.6504L156.51 95.7144L156.51 95.7144Z" fill="rgb(18,18,18)" fill-rule="nonzero" />
		<path id="Vector 62" d="M164.834 96.9164C165.598 97.4015 166.947 97.9171 168.235 97.9171C170.113 97.9171 170.993 97.0016 170.993 95.8578C170.993 94.6571 170.259 93.9996 168.354 93.3134C165.803 92.4274 164.601 91.0541 164.601 89.3957C164.601 87.1658 166.448 85.3359 169.498 85.3359C170.933 85.3359 172.195 85.7359 172.985 86.1936L172.34 88.0235C171.783 87.6804 170.758 87.2227 169.437 87.2227C167.913 87.2227 167.063 88.0804 167.063 89.1105C167.063 90.2533 167.913 90.769 169.761 91.455C172.223 92.3695 173.484 93.5701 173.484 95.6294C173.484 98.0592 171.55 99.7754 168.177 99.7754C166.623 99.7754 165.188 99.4029 164.19 98.8315L164.834 96.9164Z" fill="rgb(18,18,18)" fill-rule="nonzero" />
	</g>
	<g id="Group 16">
		<path id="Vector 63" d="M34.1402 111.926L32.9727 107.439L33.6007 107.439L34.1478 109.709C34.2838 110.269 34.4067 110.828 34.4887 111.261L34.5028 111.261C34.5772 110.815 34.7208 110.283 34.8783 109.703L35.4924 107.439L36.1139 107.439L36.674 109.717C36.8035 110.249 36.9264 110.781 36.9945 111.255L37.0086 111.255C37.1046 110.762 37.234 110.262 37.3776 109.703L37.9852 107.439L38.5929 107.439L37.2893 111.926L36.6678 111.926L36.0872 109.59C35.9437 109.017 35.8477 108.578 35.7861 108.124L35.7731 108.124C35.6911 108.571 35.5886 109.01 35.4181 109.59L34.762 111.926L34.1402 111.926Z" fill="rgb(18,18,18)" fill-rule="nonzero" />
		<path id="Vector 64" d="M44.9628 109.823L43.1736 109.823L43.1736 111.44L45.1679 111.44L45.1679 111.926L42.5791 111.926L42.5791 107.439L45.0653 107.439L45.0653 107.926L43.1736 107.926L43.1736 109.343L44.9628 109.343L44.9628 109.823L44.9628 109.823Z" fill="rgb(18,18,18)" fill-rule="nonzero" />
		<path id="Vector 65" d="M49.3527 107.499C49.6116 107.446 50.0218 107.406 50.4382 107.406C51.0318 107.406 51.4147 107.505 51.7018 107.732C51.9404 107.905 52.0838 108.172 52.0838 108.525C52.0838 108.957 51.7903 109.337 51.3057 109.511L51.3057 109.523C51.7427 109.631 52.2543 109.982 52.2543 110.649C52.2543 111.034 52.0979 111.328 51.8647 111.548C51.5441 111.834 51.0252 111.967 50.2741 111.967C49.864 111.967 49.55 111.94 49.3525 111.914L49.3525 107.499L49.3527 107.499ZM49.9462 109.337L50.4858 109.337C51.1138 109.337 51.4828 109.017 51.4828 108.585C51.4828 108.059 51.0727 107.852 50.4717 107.852C50.1987 107.852 50.0421 107.871 49.9462 107.892L49.9462 109.337ZM49.9462 111.488C50.0628 111.508 50.2333 111.514 50.4448 111.514C51.0599 111.514 51.6264 111.295 51.6264 110.642C51.6264 110.03 51.0869 109.776 50.4384 109.776L49.9462 109.776L49.9462 111.488Z" fill="rgb(18,18,18)" fill-rule="nonzero" />
		<path id="Vector 66" d="M61.3281 107.493C61.6152 107.446 61.9907 107.406 62.4688 107.406C63.0559 107.406 63.4864 107.539 63.7594 107.779C64.0118 107.991 64.1619 108.318 64.1619 108.717C64.1619 109.124 64.0389 109.444 63.8069 109.677C63.4929 110.003 62.9814 110.17 62.4008 110.17C62.2228 110.17 62.0588 110.163 61.9228 110.13L61.9228 111.927L61.3281 111.927L61.3281 107.493ZM61.9226 109.656C62.0522 109.69 62.2162 109.703 62.4137 109.703C63.1312 109.703 63.5682 109.364 63.5682 108.745C63.5682 108.151 63.1377 107.865 62.4827 107.865C62.2226 107.865 62.0252 107.886 61.9226 107.911L61.9226 109.656L61.9226 109.656Z" fill="rgb(18,18,18)" fill-rule="nonzero" />
		<path id="Vector 67" d="M68.375 107.499C68.675 107.44 69.1055 107.406 69.5146 107.406C70.1501 107.406 70.5603 107.52 70.8462 107.772C71.0793 107.972 71.2088 108.278 71.2088 108.625C71.2088 109.217 70.8257 109.61 70.3411 109.77L70.3411 109.79C70.6961 109.91 70.9077 110.23 71.0178 110.696C71.1679 111.321 71.2767 111.754 71.3728 111.927L70.7578 111.927C70.6833 111.801 70.5808 111.415 70.4502 110.856C70.3141 110.236 70.0682 110.003 69.5286 109.982L68.9686 109.982L68.9686 111.927L68.375 111.927L68.375 107.499ZM68.9686 109.544L69.5762 109.544C70.2117 109.544 70.6143 109.204 70.6143 108.691C70.6143 108.111 70.1847 107.859 69.5556 107.852C69.2697 107.852 69.0646 107.879 68.9686 107.905L68.9686 109.544Z" fill="rgb(18,18,18)" fill-rule="nonzero" />
		<path id="Vector 68" d="M79.4154 109.636C79.4154 111.181 78.4528 111.999 77.2777 111.999C76.0626 111.999 75.209 111.081 75.209 109.722C75.209 108.298 76.1176 107.365 77.3467 107.365C78.6029 107.365 79.4154 108.304 79.4154 109.636ZM75.8446 109.709C75.8446 110.667 76.3765 111.527 77.3121 111.527C78.2542 111.527 78.7872 110.681 78.7872 109.663C78.7872 108.77 78.3092 107.838 77.3186 107.838C76.3356 107.838 75.8446 108.723 75.8446 109.709Z" fill="rgb(18,18,18)" fill-rule="nonzero" />
		<path id="Vector 69" d="M87.1041 111.727C86.8376 111.821 86.3111 111.974 85.6905 111.974C84.9934 111.974 84.4204 111.801 83.9692 111.382C83.5731 111.008 83.3271 110.41 83.3271 109.71C83.3336 108.372 84.2768 107.393 85.8199 107.393C86.3518 107.393 86.7684 107.505 86.967 107.599L86.8235 108.071C86.5776 107.966 86.27 107.879 85.8059 107.879C84.6858 107.879 83.9553 108.558 83.9553 109.683C83.9553 110.822 84.6588 111.494 85.7315 111.494C86.12 111.494 86.3866 111.441 86.5237 111.375L86.5237 110.037L85.5881 110.037L85.5881 109.57L87.1043 109.57L87.1043 111.727L87.1041 111.727Z" fill="rgb(18,18,18)" fill-rule="nonzero" />
		<path id="Vector 70" d="M91.4249 107.499C91.7261 107.44 92.1555 107.406 92.5656 107.406C93.2001 107.406 93.6102 107.52 93.8973 107.772C94.1293 107.972 94.2588 108.278 94.2588 108.625C94.2588 109.217 93.8767 109.61 93.3922 109.77L93.3922 109.79C93.7472 109.91 93.9587 110.23 94.0677 110.696C94.2177 111.321 94.3278 111.754 94.4228 111.927L93.8087 111.927C93.7331 111.801 93.6306 111.415 93.5011 110.856C93.3641 110.236 93.119 110.003 92.5795 109.982L92.0195 109.982L92.0195 111.927L91.4248 111.927L91.4248 107.499L91.4249 107.499ZM92.0195 109.544L92.6271 109.544C93.2616 109.544 93.6652 109.204 93.6652 108.691C93.6652 108.111 93.2347 107.859 92.6065 107.852C92.3195 107.852 92.1144 107.879 92.0195 107.905L92.0195 109.544Z" fill="rgb(18,18,18)" fill-rule="nonzero" />
		<path id="Vector 71" d="M99.2904 110.515L98.8123 111.926L98.1973 111.926L99.762 107.439L100.478 107.439L102.05 111.926L101.414 111.926L100.922 110.515L99.2904 110.515ZM100.799 110.062L100.349 108.771C100.247 108.477 100.179 108.212 100.11 107.951L100.097 107.951C100.028 108.218 99.953 108.491 99.8645 108.763L99.4135 110.062L100.799 110.062Z" fill="rgb(18,18,18)" fill-rule="nonzero" />
		<path id="Vector 72" d="M109.99 109.957C109.955 109.33 109.914 108.578 109.921 108.018L109.9 108.018C109.744 108.544 109.553 109.104 109.32 109.723L108.507 111.9L108.057 111.9L107.313 109.763C107.093 109.129 106.91 108.551 106.779 108.018L106.766 108.018C106.752 108.578 106.718 109.329 106.677 110.003L106.555 111.926L105.987 111.926L106.309 107.439L107.066 107.439L107.852 109.609C108.043 110.163 108.2 110.655 108.316 111.121L108.336 111.121C108.453 110.668 108.617 110.175 108.821 109.609L109.641 107.439L110.399 107.439L110.686 111.926L110.105 111.926L109.99 109.957Z" fill="rgb(18,18,18)" fill-rule="nonzero" />
		<path id="Vector 73" d="M118.893 109.957C118.858 109.33 118.817 108.578 118.825 108.018L118.804 108.018C118.647 108.544 118.456 109.104 118.224 109.723L117.411 111.9L116.96 111.9L116.216 109.763C115.998 109.129 115.813 108.551 115.684 108.018L115.67 108.018C115.657 108.578 115.622 109.329 115.581 110.003L115.458 111.926L114.892 111.926L115.212 107.439L115.971 107.439L116.755 109.609C116.947 110.163 117.104 110.655 117.22 111.121L117.241 111.121C117.356 110.668 117.52 110.175 117.726 109.609L118.545 107.439L119.303 107.439L119.59 111.926L119.01 111.926L118.893 109.957Z" fill="rgb(18,18,18)" fill-rule="nonzero" />
		<path id="Vector 74" d="M124.512 107.439L124.512 111.926L123.918 111.926L123.918 107.439L124.512 107.439Z" fill="rgb(18,18,18)" fill-rule="nonzero" />
		<path id="Vector 75" d="M128.963 111.926L128.963 107.439L129.611 107.439L131.087 109.709C131.429 110.235 131.694 110.708 131.913 111.168L131.927 111.161C131.872 110.562 131.858 110.015 131.858 109.317L131.858 107.439L132.418 107.439L132.418 111.926L131.817 111.926L130.356 109.649C130.035 109.15 129.728 108.637 129.496 108.151L129.475 108.158C129.509 108.723 129.523 109.263 129.523 110.009L129.523 111.926L128.963 111.926L128.963 111.926Z" fill="rgb(18,18,18)" fill-rule="nonzero" />
		<path id="Vector 76" d="M140.373 111.727C140.106 111.821 139.58 111.974 138.959 111.974C138.263 111.974 137.689 111.801 137.238 111.382C136.842 111.008 136.597 110.41 136.597 109.71C136.603 108.372 137.545 107.393 139.088 107.393C139.621 107.393 140.038 107.505 140.235 107.599L140.093 108.071C139.847 107.966 139.539 107.879 139.075 107.879C137.955 107.879 137.225 108.558 137.225 109.683C137.225 110.822 137.928 111.494 139 111.494C139.389 111.494 139.656 111.441 139.792 111.375L139.792 110.037L138.856 110.037L138.856 109.57L140.373 109.57L140.373 111.727L140.373 111.727Z" fill="rgb(18,18,18)" fill-rule="nonzero" />
	</g>
</svg>
