<svg viewBox="0 0 143.438 120" xmlns="http://www.w3.org/2000/svg" xmlns:xlink="http://www.w3.org/1999/xlink" width="143.437500" height="120.000000" fill="none">
	<rect id="homepage_logo-02" width="143.437500" height="120.000000" x="0.000000" y="0.000000" />
	<g id="Group 89">
		<g id="Group 90">
			<g id="Group 91">
				<g id="Group 92">
					<path id="Vector 220" d="M10.4759 120C8.49044 120 6.69967 119.584 5.10344 118.751C3.50726 117.914 2.25655 116.747 1.35128 115.248C0.450443 113.75 0 112.048 0 110.142C0 108.24 0.450443 106.54 1.35128 105.042C2.25655 103.543 3.50726 102.378 5.10344 101.545C6.69967 100.708 8.49044 100.29 10.4759 100.29C12.3038 100.29 13.9328 100.614 15.3629 101.263C16.7973 101.907 17.9802 102.84 18.9117 104.062L14.9102 107.638C13.747 106.17 12.376 105.436 10.7973 105.436C9.47222 105.436 8.40738 105.863 7.60273 106.718C6.79807 107.568 6.39573 108.709 6.39573 110.142C6.39573 111.579 6.79807 112.725 7.60273 113.579C8.40738 114.429 9.47222 114.854 10.7973 114.854C12.376 114.854 13.747 114.118 14.9102 112.646L18.9117 116.228C17.9802 117.45 16.7973 118.386 15.3629 119.034C13.9328 119.678 12.3038 120 10.4759 120ZM30.2009 120Q27.3177 120 24.9902 118.863Q24.8659 118.802 24.7432 118.738C23.1339 117.893 21.8722 116.721 20.9582 115.222C20.0443 113.719 19.5873 112.026 19.5873 110.142C19.5873 108.258 20.0443 106.566 20.9582 105.068C21.8722 103.57 23.1339 102.4 24.7432 101.558Q24.8845 101.484 25.028 101.415L25.0281 101.415Q27.3411 100.29 30.2009 100.29C32.2257 100.29 34.0427 100.713 35.652 101.558C37.2657 102.4 38.5296 103.57 39.4435 105.068C40.3575 106.566 40.8145 108.258 40.8145 110.142C40.8145 112.026 40.3575 113.719 39.4435 115.222C38.5296 116.721 37.2657 117.893 35.652 118.738C34.0427 119.579 32.2257 120 30.2009 120ZM115.118 119.783C113.22 119.783 111.51 119.367 109.988 118.534C108.466 117.698 107.27 116.543 106.4 115.071C105.534 113.599 105.101 111.956 105.101 110.142C105.101 108.332 105.534 106.691 106.4 105.219C107.27 103.747 108.466 102.595 109.988 101.762C111.51 100.925 113.22 100.507 115.118 100.507C116.998 100.507 118.699 100.925 120.221 101.762C121.747 102.595 122.939 103.743 123.796 105.206C124.658 106.67 125.088 108.315 125.088 110.142C125.088 111.973 124.658 113.621 123.796 115.084C122.939 116.547 121.747 117.698 120.221 118.534C118.699 119.367 116.998 119.783 115.118 119.783ZM43.1197 100.724L52.3951 100.724C54.4899 100.724 56.3375 101.105 57.9381 101.867C59.5431 102.63 60.7894 103.721 61.6772 105.14C62.5649 106.556 63.0088 108.223 63.0088 110.142C63.0088 112.065 62.5649 113.737 61.6772 115.156C60.7894 116.572 59.5431 117.66 57.9381 118.423C56.3375 119.185 54.4899 119.566 52.3951 119.566L43.1197 119.566L43.1197 100.724ZM80.9516 114.775L80.9516 119.566L65.3132 119.566L65.3132 100.724L80.604 100.724L80.604 105.515L71.5515 105.515L71.5515 107.723L79.5019 107.723L79.5019 112.297L71.5515 112.297L71.5515 114.775L80.9516 114.775ZM98.9434 109.793C100.037 110.1 100.896 110.652 101.521 111.45C102.151 112.247 102.466 113.257 102.466 114.479C102.466 116.114 101.852 117.371 100.623 118.252C99.3982 119.128 97.6117 119.566 95.2634 119.566L86.2897 119.566L86.2897 100.724L94.7254 100.724C96.8771 100.724 98.5389 101.155 99.7109 102.018C100.883 102.877 101.469 104.069 101.469 105.594C101.469 106.58 101.239 107.432 100.78 108.15C100.325 108.869 99.7131 109.417 98.9434 109.793ZM140.348 119.566L134.706 111.785L129.144 119.566L126.054 119.566L133.119 109.905L126.487 100.724L129.551 100.724L134.818 107.966L140.026 100.724L142.959 100.724L136.32 109.82L143.438 119.566L140.348 119.566ZM88.9791 102.906L88.9791 108.933L94.4828 108.933C95.8647 108.933 96.9274 108.678 97.6708 108.17Q98.1102 107.867 98.3765 107.453Q98.7859 106.816 98.7859 105.916C98.7859 104.93 98.4142 104.183 97.6708 103.675C96.9274 103.162 95.8647 102.906 94.4828 102.906L88.9791 102.906ZM115.118 117.384C116.499 117.384 117.741 117.071 118.843 116.444C119.945 115.818 120.814 114.953 121.448 113.849C122.082 112.744 122.399 111.509 122.399 110.142C122.399 108.779 122.082 107.546 121.448 106.442C120.814 105.338 119.945 104.472 118.843 103.846C117.741 103.219 116.499 102.906 115.118 102.906C113.74 102.906 112.491 103.219 111.372 103.846C110.252 104.472 109.373 105.338 108.735 106.442C108.101 107.546 107.784 108.779 107.784 110.142C107.784 111.509 108.101 112.744 108.735 113.849C109.373 114.953 110.252 115.818 111.372 116.444C112.491 117.071 113.74 117.384 115.118 117.384ZM30.2009 114.854C30.9881 114.854 31.6987 114.661 32.3328 114.276C32.9713 113.89 33.4786 113.342 33.8546 112.633C34.2307 111.923 34.4188 111.093 34.4188 110.142C34.4188 109.191 34.2307 108.363 33.8546 107.657C33.4786 106.948 32.9713 106.4 32.3328 106.014C31.6987 105.629 30.9881 105.436 30.2009 105.436C29.4093 105.436 28.6965 105.629 28.0624 106.014C27.4283 106.4 26.9232 106.948 26.5471 107.657C26.171 108.363 25.983 109.191 25.983 110.142C25.983 111.093 26.171 111.923 26.5471 112.633C26.9232 113.342 27.4283 113.89 28.0624 114.276C28.6965 114.661 29.4093 114.854 30.2009 114.854ZM52.1262 114.611C53.4863 114.611 54.573 114.221 55.3864 113.441C56.2042 112.661 56.6131 111.561 56.6131 110.142C56.6131 108.726 56.2042 107.629 55.3864 106.849C54.573 106.065 53.4863 105.673 52.1262 105.673L49.463 105.673L49.463 114.611L52.1262 114.611ZM95.1584 117.384C96.6803 117.384 97.826 117.135 98.5957 116.635C99.3654 116.131 99.7502 115.34 99.7502 114.262C99.7502 112.164 98.2196 111.114 95.1584 111.114L88.9791 111.114L88.9791 117.384L95.1584 117.384Z" fill="rgb(49,65,88)" fill-rule="evenodd" />
				</g>
			</g>
		</g>
		<g id="Group 93">
			<path id="Vector 226" d="M76.0488 45.2659L76.0488 92.8367L114.061 72.5239L114.061 24.9531L76.0488 45.2659ZM89.6577 57.9867L82.4489 66.6722L89.5695 67.704L89.5243 72.7028L79.3491 70.9061L79.396 65.7078L89.703 53.0282L89.6577 57.9867ZM93.0437 78.9511L90.0532 80.5403L97.4949 39.0976L100.485 37.5084L93.0437 78.9511ZM110.911 54.1352L100.604 66.8148L100.65 61.8159L107.858 53.1708L100.738 52.0986L100.783 47.1402L110.958 48.9368L110.911 54.1352Z" fill="rgb(55,210,4)" fill-rule="nonzero" />
			<path id="Vector 227" d="M31.5195 24.9531L31.5195 72.5239L69.9637 92.8367L69.9637 45.2659L31.5195 24.9531Z" fill="rgb(65,159,34)" fill-rule="nonzero" />
			<path id="Vector 228" d="M72.7727 0L33.7422 20.6438L72.7727 41.2868L111.53 20.6438L72.7727 0Z" fill="rgb(145,221,120)" fill-rule="nonzero" />
		</g>
	</g>
</svg>
