<svg viewBox="0 0 157.217 128" xmlns="http://www.w3.org/2000/svg" xmlns:xlink="http://www.w3.org/1999/xlink" width="157.216797" height="128.000000" fill="none">
	<defs>
		<linearGradient id="paint_linear_0" x1="22.7973328" x2="99.9480591" y1="40.0213318" y2="88.8586044" gradientUnits="userSpaceOnUse">
			<stop stop-color="rgb(4,150,255)" offset="0" stop-opacity="1" />
			<stop stop-color="rgb(86,203,255)" offset="0.908599973" stop-opacity="1" />
		</linearGradient>
		<linearGradient id="paint_linear_1" x1="96.7212677" x2="130.968872" y1="37.4654312" y2="64.3590393" gradientUnits="userSpaceOnUse">
			<stop stop-color="rgb(86,203,255)" offset="0" stop-opacity="1" />
			<stop stop-color="rgb(196,255,255)" offset="0.997099996" stop-opacity="1" />
		</linearGradient>
		<linearGradient id="paint_linear_2" x1="53.6273041" x2="130.778061" y1="-8.6822052" y2="40.1550026" gradientUnits="userSpaceOnUse">
			<stop stop-color="rgb(4,150,255)" offset="0" stop-opacity="1" />
			<stop stop-color="rgb(86,203,255)" offset="0.908599973" stop-opacity="1" />
		</linearGradient>
		<linearGradient id="paint_linear_3" x1="63.3461533" x2="100.468079" y1="23.8265953" y2="55.8517075" gradientUnits="userSpaceOnUse">
			<stop stop-color="rgb(86,203,255)" offset="0" stop-opacity="1" />
			<stop stop-color="rgb(196,255,255)" offset="0.997099996" stop-opacity="1" />
		</linearGradient>
	</defs>
	<rect id="homepage_logo-03" width="157.216492" height="128.000015" x="0.000000" y="0.000000" />
	<g id="Group 45">
		<g id="Group 46">
			<path id="Vector 146" d="M8.74805 24.3936L41.2407 79.2516C50.0461 94.1188 72.0584 94.1188 80.8639 79.2516L81.1189 78.8185L48.8813 24.3936L8.74805 24.3936Z" fill="url(#paint_linear_0)" fill-rule="nonzero" />
			<path id="Vector 147" d="M113.357 24.3936L81.1191 78.8185L81.3742 79.2516C90.1796 94.1188 112.192 94.1188 120.997 79.2516L153.49 24.3936L113.357 24.3936Z" fill="url(#paint_linear_1)" fill-rule="nonzero" />
			<path id="Vector 148" d="M113.357 24.3934L127.805 0L34.4336 0L48.8841 24.3934L113.357 24.3934Z" fill="url(#paint_linear_2)" fill-rule="nonzero" />
		</g>
		<path id="Vector 149" d="M48.8838 24.3936L81.1188 78.8211L113.356 24.3936L48.8838 24.3936Z" fill="url(#paint_linear_3)" fill-rule="nonzero" />
	</g>
	<path id="Vector 221" d="M29.9228 111.341C31.1414 111.341 32.1679 111.415 33.0023 111.564C33.8366 111.713 34.5239 111.938 35.0639 112.239C35.604 112.54 36.0195 112.92 36.3103 113.377C36.6011 113.834 36.814 114.37 36.949 114.986C37.0841 115.603 37.1637 116.298 37.1879 117.074C37.2121 117.85 37.2243 118.708 37.2243 119.65C37.2243 120.592 37.2121 121.45 37.1879 122.226C37.1637 123.001 37.0841 123.697 36.949 124.313C36.814 124.929 36.6011 125.466 36.3103 125.923C36.0195 126.38 35.604 126.759 35.0639 127.06C34.5239 127.362 33.8366 127.587 33.0023 127.735C32.1679 127.884 31.1414 127.959 29.9228 127.959L23.9195 127.959C22.7009 127.959 21.6743 127.884 20.84 127.735C20.0056 127.587 19.3184 127.362 18.7783 127.06C18.2382 126.759 17.821 126.38 17.5268 125.923C17.2325 125.466 17.0179 124.929 16.8828 124.313C16.7478 123.697 16.6699 123.001 16.6491 122.226C16.6284 121.45 16.618 120.592 16.618 119.65C16.618 118.708 16.6284 117.85 16.6491 117.074C16.6699 116.298 16.7478 115.603 16.8828 114.986C17.0179 114.37 17.2325 113.834 17.5268 113.377C17.821 112.92 18.2382 112.54 18.7783 112.239C19.3184 111.938 20.0056 111.713 20.84 111.564C21.6743 111.415 22.7009 111.341 23.9195 111.341L29.9228 111.341ZM57.841 116.659C57.841 115.828 57.7509 115.17 57.5709 114.685C57.3909 114.2 57.0932 113.834 56.6777 113.584C56.2623 113.335 55.7152 113.176 55.0367 113.106C54.3581 113.037 53.5203 113.003 52.5232 113.003L47.1847 113.003C46.2984 113.003 45.5523 113.029 44.9464 113.081C44.3406 113.132 43.8403 113.238 43.4456 113.397C43.051 113.556 42.7463 113.785 42.5316 114.083C42.317 114.381 42.1612 114.775 42.0643 115.267C41.9674 115.758 41.9119 116.363 41.8981 117.079C41.8843 117.796 41.8773 118.653 41.8773 119.65C41.8773 120.647 41.8859 121.504 41.9033 122.22C41.9206 122.937 41.9777 123.541 42.0747 124.033C42.1716 124.524 42.3257 124.919 42.5368 125.217C42.748 125.515 43.051 125.743 43.4456 125.902C43.8403 126.061 44.3406 126.167 44.9464 126.219C45.5523 126.271 46.2984 126.297 47.1847 126.297L52.5336 126.297C53.3091 126.297 53.9773 126.276 54.5381 126.235C55.099 126.193 55.5768 126.117 55.9714 126.006C56.3661 125.895 56.6847 125.743 56.927 125.549C57.1693 125.355 57.358 125.111 57.493 124.817C57.628 124.523 57.7198 124.17 57.7683 123.758C57.8167 123.345 57.841 122.863 57.841 122.309L57.841 121.312L49.8436 121.312L49.8436 119.65L59.8351 119.65L59.8351 122.309C59.8351 122.973 59.7936 123.574 59.7105 124.111C59.6274 124.647 59.4802 125.125 59.2691 125.544C59.0579 125.963 58.7757 126.325 58.4226 126.629C58.0695 126.934 57.6229 127.185 57.0828 127.382C56.5427 127.58 55.8987 127.725 55.1509 127.819Q54.0292 127.959 52.5336 127.959L47.1847 127.959C45.966 127.959 44.9395 127.884 44.1052 127.735C43.2708 127.587 42.5836 127.362 42.0435 127.06C41.5034 126.759 41.0862 126.38 40.792 125.923C40.4977 125.466 40.283 124.929 40.148 124.313C40.013 123.697 39.9351 123.001 39.9143 122.226C39.8935 121.45 39.8832 120.592 39.8832 119.65C39.8832 118.708 39.8935 117.85 39.9143 117.074C39.9351 116.298 40.013 115.603 40.148 114.986C40.283 114.37 40.4977 113.834 40.792 113.377C41.0862 112.92 41.5034 112.54 42.0435 112.239C42.5836 111.938 43.2708 111.713 44.1052 111.564C44.9395 111.415 45.966 111.341 47.1847 111.341L52.5232 111.341Q54.0188 111.341 55.1405 111.481C55.8884 111.575 56.5323 111.717 57.0724 111.907C57.6125 112.097 58.0608 112.338 58.4174 112.629C58.774 112.92 59.0579 113.262 59.2691 113.657C59.4802 114.052 59.6274 114.498 59.7105 114.997C59.7936 115.495 59.8351 116.049 59.8351 116.659L57.841 116.659ZM79.1951 118.653C80.2891 118.653 81.2273 118.698 82.0097 118.788C82.7922 118.878 83.4517 119.011 83.9883 119.188C84.525 119.364 84.9525 119.584 85.271 119.847C85.5896 120.11 85.8353 120.41 86.0084 120.746C86.1816 121.081 86.2941 121.457 86.346 121.872C86.3979 122.288 86.4239 122.738 86.4239 123.223C86.4239 123.707 86.3806 124.163 86.2941 124.588C86.2075 125.014 86.0534 125.404 85.8319 125.757C85.6103 126.11 85.3091 126.425 84.9283 126.702C84.5474 126.979 84.0628 127.214 83.4742 127.408C82.8856 127.602 82.1777 127.749 81.3502 127.85C80.5228 127.95 79.5551 128 78.4473 128L75.7884 128C74.7913 128 73.9189 127.962 73.1711 127.886C72.4232 127.81 71.7793 127.694 71.2392 127.538C70.6991 127.382 70.2525 127.185 69.8994 126.946C69.5462 126.707 69.2641 126.427 69.0529 126.105C68.8417 125.783 68.6946 125.416 68.6115 125.004C68.5284 124.592 68.4869 124.137 68.4869 123.638L70.481 123.638C70.481 124.261 70.5711 124.749 70.7511 125.103C70.9311 125.456 71.2288 125.721 71.6443 125.897C72.0597 126.074 72.605 126.185 73.2801 126.229C73.9552 126.274 74.7913 126.297 75.7884 126.297L78.4473 126.297C79.6105 126.297 80.5764 126.242 81.345 126.131C82.1136 126.02 82.7264 125.843 83.1834 125.601C83.6404 125.359 83.9624 125.042 84.1493 124.651C84.3363 124.259 84.4297 123.784 84.4297 123.223C84.4297 122.662 84.3657 122.194 84.2376 121.821C84.1095 121.447 83.8567 121.149 83.4794 120.927C83.1021 120.706 82.5706 120.548 81.8851 120.455C81.1996 120.361 80.303 120.315 79.1951 120.315L76.4531 120.315C75.2345 120.315 74.1907 120.27 73.3216 120.18C72.4526 120.089 71.7239 119.96 71.1353 119.79C70.5468 119.62 70.076 119.409 69.7228 119.156C69.3697 118.904 69.1014 118.615 68.9179 118.289C68.7344 117.964 68.6149 117.602 68.5596 117.204C68.5042 116.806 68.4765 116.375 68.4765 115.911C68.4765 115.426 68.5198 114.976 68.6063 114.561C68.6928 114.145 68.8538 113.769 69.0893 113.434C69.3247 113.098 69.6467 112.798 70.0552 112.535C70.4637 112.272 70.9882 112.052 71.6287 111.876C72.2692 111.699 73.0395 111.566 73.9396 111.476C74.8398 111.386 75.8992 111.341 77.1178 111.341L79.112 111.341Q80.6076 111.341 81.7293 111.45C82.4771 111.523 83.1211 111.637 83.6611 111.793C84.2012 111.948 84.6496 112.142 85.0062 112.374C85.3627 112.606 85.6467 112.883 85.8578 113.205C86.069 113.527 86.2162 113.892 86.2993 114.301C86.3823 114.709 86.4239 115.163 86.4239 115.661L84.4297 115.661C84.4297 115.038 84.3397 114.55 84.1597 114.197C83.9797 113.844 83.6819 113.579 83.2665 113.402C82.851 113.226 82.304 113.115 81.6255 113.07C80.9469 113.025 80.1091 113.003 79.112 113.003L77.1178 113.003C75.7884 113.003 74.6944 113.049 73.8358 113.143C72.9771 113.236 72.2986 113.394 71.8001 113.615C71.3015 113.837 70.9553 114.135 70.7614 114.509C70.5675 114.883 70.4706 115.35 70.4706 115.911C70.4706 116.257 70.4948 116.565 70.5433 116.835C70.5918 117.105 70.6905 117.342 70.8393 117.547C70.9882 117.751 71.1977 117.922 71.4677 118.061C71.7377 118.199 72.0943 118.313 72.5375 118.403C72.9807 118.494 73.5224 118.557 74.1629 118.596C74.8034 118.634 75.5668 118.653 76.4531 118.653L79.1951 118.653ZM0 127.626L0 111.673L1.99416 111.673L1.99416 125.965L14.6238 125.965L14.6238 127.626L0 127.626ZM63.1587 111.673L65.1529 111.673L65.1529 127.626L63.1587 127.626L63.1587 111.673ZM107.03 111.673L107.03 113.335L99.0536 113.335L99.0536 127.626L97.0594 127.626L97.0594 113.335L89.0828 113.335L89.0828 111.673L107.03 111.673ZM110.354 111.673L112.348 111.673L112.348 127.626L110.354 127.626L110.354 111.673ZM131.292 111.673L134.284 111.673L122.983 119.484L134.616 127.626L131.625 127.626L120.989 120.315L118.33 120.315L118.33 127.626L116.336 127.626L116.336 111.673L118.33 111.673L118.33 118.653L120.989 118.653L131.292 111.673ZM152.896 123.97L140.266 123.97L138.272 127.626L135.945 127.626L145.252 111.673L147.91 111.673L157.216 127.626L154.89 127.626L152.896 123.97ZM29.9228 126.297C30.8021 126.297 31.5448 126.271 32.1506 126.219C32.7564 126.167 33.2567 126.061 33.6514 125.902C34.0461 125.743 34.3507 125.515 34.5654 125.217C34.7801 124.919 34.9359 124.524 35.0328 124.033C35.1297 123.541 35.1868 122.937 35.2042 122.22C35.2215 121.504 35.2301 120.647 35.2301 119.65C35.2301 118.653 35.2215 117.796 35.2042 117.079C35.1868 116.363 35.1297 115.758 35.0328 115.267C34.9359 114.775 34.7801 114.381 34.5654 114.083C34.3507 113.785 34.0478 113.556 33.6566 113.397C33.2654 113.238 32.7668 113.132 32.161 113.081C31.5551 113.029 30.809 113.003 29.9228 113.003L23.9195 113.003C23.0332 113.003 22.2871 113.029 21.6813 113.081C21.0754 113.132 20.5751 113.238 20.1805 113.397C19.7858 113.556 19.4811 113.785 19.2665 114.083C19.0518 114.381 18.896 114.775 18.7991 115.267C18.7022 115.758 18.6467 116.363 18.6329 117.079C18.6191 117.796 18.6121 118.653 18.6121 119.65C18.6121 120.647 18.6208 121.504 18.6381 122.22C18.6554 122.937 18.7126 123.541 18.8095 124.033C18.9064 124.524 19.0605 124.919 19.2717 125.217C19.4828 125.515 19.7858 125.743 20.1805 125.902C20.5751 126.061 21.0754 126.167 21.6813 126.219C22.2871 126.271 23.0332 126.297 23.9195 126.297L29.9228 126.297ZM151.899 122.309L146.581 113.003L141.263 122.309L151.899 122.309Z" fill="rgb(0,0,0)" fill-rule="evenodd" />
</svg>
