<svg viewBox="0 0 507 118" xmlns="http://www.w3.org/2000/svg" xmlns:xlink="http://www.w3.org/1999/xlink" width="507.000000" height="118.000000" fill="none">
	<defs>
		<filter id="pixso_custom_mask_type_alpha">
			<feColorMatrix type="matrix" values="0 0 0 0 1 0 0 0 0 1 0 0 0 0 1 0 0 0 1 0 " />
		</filter>
		<linearGradient id="paint_linear_0" x1="112.360535" x2="99.1592255" y1="21.039299" y2="72.7320938" gradientUnits="userSpaceOnUse">
			<stop stop-color="rgb(77,173,16)" offset="0" stop-opacity="1" />
			<stop stop-color="rgb(57,139,16)" offset="1" stop-opacity="1" />
		</linearGradient>
		<linearGradient id="paint_linear_1" x1="72.0658035" x2="79.9188004" y1="6.74290991" y2="48.1351013" gradientUnits="userSpaceOnUse">
			<stop stop-color="rgb(68,193,8)" offset="0" stop-opacity="1" />
			<stop stop-color="rgb(35,96,20)" offset="1" stop-opacity="1" />
		</linearGradient>
	</defs>
	<mask id="mask_0" width="507.000000" height="118.000000" x="0.000000" y="0.000000" maskUnits="userSpaceOnUse">
		<g filter="url(#pixso_custom_mask_type_alpha)">
			<g id="clip0_2066_406">
				<rect id="Прямоугольник 1" width="507.000000" height="118.000000" x="0.000000" y="0.000000" fill="rgb(0,0,0)" />
			</g>
		</g>
	</mask>
	<rect id="logo" width="507.000000" height="118.000000" x="0.000000" y="0.000000" />
	<g id="clip path group" mask="url(#mask_0)">
		<g id="Сочетание 2">
			<path id="Форма 1" d="M134.082 8.21512L134.082 79.9351L141.572 79.9351L141.572 17.1406L144.855 17.1406L176.497 79.9351L182.556 79.9351L213.862 17.1406L216.976 17.1406L216.976 79.9351L224.466 79.9351L224.466 8.21512L209.402 8.21512L179.527 69.0748L149.063 8.21512L134.083 8.21512L134.082 8.21512ZM268.562 8.00064C263.681 8.00064 254.004 8.32331 250.637 8.53779C242.98 9.18314 240.118 10.1505 237.257 12.8389C233.133 16.9248 231.786 24.5589 231.786 43.8062C231.786 55.4187 232.123 62.0854 233.049 66.8167C234.059 72.623 237.678 77.1392 242.222 78.4292C246.43 79.6124 256.024 80.1495 271.003 80.1495C288.171 80.1495 294.399 78.7519 297.681 74.3433C300.794 70.0429 301.973 61.9779 301.973 44.3433C301.973 38.8598 301.721 31.6552 301.384 27.9995C300.794 20.3654 299.785 16.7097 297.429 13.8063C293.81 9.18251 287.75 8 268.562 8L268.562 8.00064ZM264.187 16.6028C278.577 16.6028 282.869 16.8179 287.161 17.6784C290.948 18.4306 292.967 20.5812 293.473 24.6678C293.978 27.8939 294.315 36.4954 294.315 44.5597C294.315 51.2265 293.894 58.9688 293.389 62.839C292.715 67.14 290.948 69.3981 287.666 70.151C283.879 71.0115 276.136 71.5487 267.889 71.5487C264.27 71.5487 254.845 71.226 251.815 71.0115C245.587 70.4744 243.316 69.7215 241.801 67.6785C240.034 65.2053 239.444 58.9688 239.444 43.0552C239.444 29.2915 240.286 22.5179 242.305 20.1522C244.493 17.5715 250.216 16.6041 264.186 16.6041L264.187 16.6028ZM309.294 79.9351L348.595 79.9351C364.416 79.9351 368.707 78.8595 372.747 74.0212C376.955 68.9679 378.723 59.9355 378.723 44.0213C378.723 27.1397 377.544 20.1503 373.841 15.097C369.633 9.39827 365.342 8.21512 348.006 8.21512L309.294 8.21512L309.294 79.9351ZM316.784 71.548L316.784 16.6028L347.837 16.6028C354.149 16.6028 356.589 16.6028 358.105 16.8179C363.238 17.2481 365.847 18.5382 367.698 21.3341C369.886 24.8822 371.064 32.5164 371.064 43.5917C371.064 61.0111 368.624 68.7528 362.564 70.5806C359.451 71.548 359.114 71.548 348.258 71.548L316.783 71.548L316.784 71.548Z" fill="rgb(68,159,15)" fill-rule="nonzero" />
			<path id="Форма 2" d="M389.916 77.3947L421.719 77.3947L421.719 72.5487L394.244 72.5487L394.244 58.3209L420.503 58.3209L420.503 53.4743L394.244 53.4743L394.244 40.7997L421.67 40.7997L421.67 35.9538L389.916 35.9538L389.916 77.3953L389.916 77.3947ZM424.783 77.3947L429.11 77.3947L429.11 61.4267L445.012 61.4267C452.014 61.4888 452.014 61.4888 453.522 61.7993C455.564 62.1725 456.731 63.7251 456.975 66.3968C457.169 68.0121 457.169 68.0748 457.169 73.4175L457.169 77.394L461.497 77.394L461.497 71.4917C461.497 64.4089 461.303 63.1662 460.037 61.4881C459.211 60.3696 458.287 59.7486 456.731 59.376C461.01 58.2575 462.08 56.0833 462.08 48.4409C462.08 45.0233 461.788 42.9733 461.059 41.0468C460.037 38.4993 458.092 36.884 455.466 36.4493C453.229 36.0761 453.181 36.0761 445.011 35.9525L424.782 35.9525L424.782 77.394L424.783 77.3947ZM429.11 56.5807L429.11 40.7991L445.012 40.7991C452.841 40.7991 454.786 41.0475 456.099 42.2902C457.072 43.1602 457.655 45.4587 457.655 48.3788C457.655 50.4915 457.363 52.852 456.975 53.7842C456.099 55.8963 454.106 56.5801 448.903 56.5801L445.013 56.5801L429.111 56.5801L429.11 56.5807ZM466.116 35.9531L466.116 77.3947L470.444 77.3947L470.444 41.1102L471.417 41.1102L499.67 77.3947L507.012 77.3947L507.012 35.9531L502.685 35.9531L502.685 72.2997L501.663 72.2997L473.313 35.9531L466.116 35.9531Z" fill="rgb(68,159,15)" fill-rule="nonzero" />
			<path id="Форма 3" d="M391.676 27.0194L398.503 27.0194C401.252 27.0194 401.998 26.8325 402.699 25.9918C403.43 25.1141 403.738 23.5449 403.738 20.7797C403.738 17.8474 403.533 16.6329 402.889 15.7545C402.158 14.7647 401.413 14.5592 398.401 14.5592L391.676 14.5592L391.676 27.0188L391.676 27.0194ZM392.977 25.5622L392.977 16.0164L398.372 16.0164C399.469 16.0164 399.893 16.0164 400.156 16.0535C401.047 16.1284 401.5 16.3525 401.822 16.8384C402.202 17.455 402.407 18.7809 402.407 20.7054C402.407 23.7312 401.983 25.0763 400.93 25.3939C400.389 25.5622 400.331 25.5622 398.445 25.5622L392.977 25.5622ZM404.994 27.0194L414.556 27.0194L414.556 25.5622L406.295 25.5622L406.295 21.2848L414.19 21.2848L414.19 19.8277L406.295 19.8277L406.295 16.017L414.541 16.017L414.541 14.5599L404.994 14.5599L404.994 27.0194ZM414.556 14.5599L420.053 27.0194L422.055 27.0194L427.435 14.5599L425.988 14.5599L421.281 25.4873L420.813 25.4873L415.988 14.5599L414.555 14.5599L414.556 14.5599ZM427.978 27.0194L437.539 27.0194L437.539 25.5622L429.278 25.5622L429.278 21.2848L437.173 21.2848L437.173 19.8277L429.278 19.8277L429.278 16.017L437.524 16.017L437.524 14.5599L427.978 14.5599L427.978 27.0194ZM438.46 14.5599L438.46 27.0194L447.451 27.0194L447.451 25.5622L439.761 25.5622L439.761 14.5599L438.459 14.5599L438.46 14.5599ZM454.425 14.5227C453.577 14.5227 451.896 14.5791 451.311 14.6162C449.98 14.7282 449.484 14.8966 448.987 15.3634C448.27 16.0734 448.037 17.3999 448.037 20.7432C448.037 22.7606 448.095 23.9188 448.256 24.7402C448.431 25.7492 449.06 26.5335 449.849 26.7575C450.58 26.9631 452.247 27.0565 454.849 27.0565C457.832 27.0565 458.914 26.8132 459.484 26.0475C460.025 25.3004 460.229 23.8996 460.229 20.836C460.229 19.8834 460.186 18.6317 460.127 17.9966C460.025 16.6701 459.849 16.0356 459.44 15.5311C458.811 14.7282 457.759 14.5221 454.425 14.5221L454.425 14.5227ZM453.665 16.017C456.165 16.017 456.911 16.0542 457.657 16.204C458.314 16.3346 458.666 16.7085 458.753 17.4179C458.841 17.9781 458.899 19.473 458.899 20.8738C458.899 22.032 458.826 23.3765 458.739 24.0494C458.622 24.7965 458.315 25.1883 457.744 25.3196C457.087 25.4694 455.742 25.5629 454.309 25.5629C453.68 25.5629 452.043 25.5072 451.516 25.4694C450.434 25.3759 450.04 25.2453 449.777 24.8906C449.469 24.461 449.367 23.3771 449.367 20.6132C449.367 18.222 449.514 17.0452 449.864 16.6342C450.245 16.1861 451.238 16.0177 453.666 16.0177L453.665 16.017ZM461.501 27.0194L462.803 27.0194L462.803 22.331L467.671 22.331C468.636 22.331 469.206 22.331 469.382 22.3118C470.669 22.2746 471.092 22.1248 471.619 21.5461C472.145 20.9859 472.35 20.0889 472.35 18.4077C472.35 16.7078 472.116 15.7737 471.561 15.2315C470.961 14.6527 470.961 14.6527 467.672 14.5592L461.502 14.5592L461.502 27.0188L461.501 27.0194ZM462.803 20.8738L462.803 16.017L467.671 16.017C470.113 16.0734 470.258 16.1105 470.653 16.4844C470.945 16.7642 471.019 17.1759 471.019 18.4646C471.019 19.6414 470.917 20.1081 470.625 20.4257C470.23 20.8367 470.039 20.8745 467.671 20.8745L462.803 20.8745L462.803 20.8738ZM473.271 27.0194L482.832 27.0194L482.832 25.5622L474.572 25.5622L474.572 21.2848L482.467 21.2848L482.467 19.8277L474.572 19.8277L474.572 16.017L482.817 16.017L482.817 14.5599L473.271 14.5599L473.271 27.0194ZM483.753 27.0194L485.055 27.0194L485.055 22.219L489.835 22.219C491.94 22.2375 491.94 22.2375 492.394 22.331C493.008 22.443 493.359 22.9098 493.432 23.7132C493.49 24.1992 493.49 24.2177 493.49 25.8241L493.49 27.0194L494.792 27.0194L494.792 25.2447C494.792 23.1146 494.733 22.7414 494.353 22.2369C494.104 21.9008 493.827 21.7144 493.359 21.6018C494.646 21.2656 494.967 20.612 494.967 18.3142C494.967 17.2866 494.88 16.6707 494.661 16.0913C494.354 15.3256 493.769 14.8396 492.979 14.709C492.307 14.597 492.293 14.597 489.837 14.5592L483.754 14.5592L483.754 27.0188L483.753 27.0194ZM485.055 20.7618L485.055 16.017L489.835 16.017C492.189 16.017 492.774 16.0919 493.168 16.4652C493.461 16.7271 493.636 17.4179 493.636 18.2963C493.636 18.9314 493.549 19.6414 493.432 19.9212C493.168 20.5563 492.569 20.7618 491.005 20.7618L489.835 20.7618L485.055 20.7618ZM495.917 23.1345C495.902 23.3586 495.902 23.6575 495.902 23.6947C495.902 25.2453 496.122 25.899 496.794 26.4406C497.393 26.9074 498.241 27.0572 500.464 27.0572C503.402 27.0572 504.821 26.8702 505.552 26.4221C506.326 25.9176 506.692 24.9649 506.692 23.3963C506.692 22.4622 506.56 21.7714 506.268 21.2484C505.815 20.4077 505.142 20.1087 503.724 20.1087C501.122 20.0902 501.122 20.0902 500.406 20.0902C499.265 20.071 498.505 19.9781 498.051 19.8283C497.394 19.585 497.218 19.2118 497.218 18.0722C497.218 16.2975 497.964 15.9428 501.648 15.9428C502.876 15.9428 503.783 16.0548 504.266 16.2603C504.938 16.5401 505.084 16.8577 505.084 18.0722L505.084 18.2591L506.385 18.2591C506.371 16.6528 506.21 16.0362 505.654 15.476C504.982 14.7846 503.9 14.5234 501.706 14.5234C500.77 14.5234 499.455 14.5983 498.738 14.7103C497.628 14.8781 497.116 15.0836 496.619 15.6066C496.136 16.1111 495.887 16.9332 495.887 18.0536C495.887 20.594 496.838 21.5281 499.411 21.5281C504.177 21.5281 504.177 21.5281 504.659 21.7337C505.171 21.9577 505.361 22.4437 505.361 23.5269C505.361 24.5916 505.054 25.2082 504.426 25.3766C503.87 25.5449 502.569 25.6563 501.297 25.6563C499.308 25.6563 498.168 25.5629 497.788 25.3766C497.291 25.1333 497.203 24.8343 497.174 23.3963L497.174 23.1345L495.916 23.1345L495.917 23.1345Z" fill="rgb(15,23,43)" fill-rule="nonzero" />
			<path id="Форма 4" d="M0 33.6672L117.735 0C107.693 39.3223 97.6499 78.6447 87.6079 117.967C81.4022 100.16 74.0177 82.908 60.2336 68.6667C45.1971 53.2192 25.7046 41.1137 0 33.6665L0 33.6672Z" fill="rgb(55,210,4)" fill-rule="evenodd" />
			<path id="Форма 5" d="M86.7156 113.83C80.8652 97.0436 73.904 80.7805 60.9111 67.3561L115.116 2.62622C105.65 39.6943 96.1827 76.7624 86.7163 113.83L86.7156 113.83Z" fill="url(#paint_linear_0)" fill-rule="evenodd" />
			<path id="Форма 6" d="M92.0006 30.2298L115.116 2.62622L92.0006 9.23596L4.13086 34.3625C28.3617 41.3826 46.7369 52.7934 60.911 67.3561L92.0006 30.2291L92.0006 30.2298Z" fill="url(#paint_linear_1)" fill-rule="evenodd" />
			<path id="Форма 7" d="M65.2039 18.7051L48.2461 36.741L49.7282 38.1342L64.5765 22.3435L65.2257 22.9543L56.6408 44.6338L57.84 45.7619L78.8837 35.796L79.4996 36.3754L64.652 52.1667L66.1348 53.5605L83.0919 35.5252L80.111 32.7217L59.808 42.4666L68.1688 21.4933L65.2039 18.7051Z" fill="rgb(254,254,254)" fill-rule="nonzero" />
			<path id="Форма 8" d="M71.7314 58.998L79.5096 66.3113C82.641 69.2558 83.7447 69.7839 85.6885 69.3185C87.7161 68.8306 90.2015 66.8882 93.9641 62.8867C97.9559 58.6414 99.3753 56.665 99.8369 54.7046C100.352 52.4888 99.7819 51.392 96.3509 48.1659L88.6892 40.962L71.7314 58.9973L71.7314 58.998ZM75.197 58.2822L88.1886 44.4647L94.3348 50.2435C95.5845 51.4183 96.0673 51.8722 96.3163 52.2083C97.2306 53.2718 97.4418 54.0816 97.1473 55.1297C96.7414 56.4294 95.1697 58.5684 92.5505 61.3534C88.4319 65.7338 86.1187 67.2262 84.4868 66.5585C83.6417 66.2223 83.5751 66.1596 81.4265 64.1397L75.197 58.2828L75.197 58.2822Z" fill="rgb(254,254,254)" fill-rule="nonzero" />
		</g>
	</g>
	<path id="Убрать верхний слой" d="M506.568 117.625L506.568 93.6255L133.568 93.6255L133.568 117.625L506.568 117.625ZM343.148 111.947C344.268 112.546 345.608 112.845 347.167 112.845C348.101 112.845 349.001 112.702 349.867 112.416C350.736 112.129 351.436 111.753 351.967 111.288L350.868 108.387C350.282 108.814 349.694 109.131 349.105 109.339C348.519 109.544 347.92 109.647 347.308 109.647C346.068 109.647 345.134 109.297 344.506 108.597C343.881 107.897 343.568 106.887 343.568 105.565C343.568 104.26 343.881 103.257 344.506 102.557C345.134 101.857 346.068 101.507 347.308 101.507C347.92 101.507 348.519 101.612 349.105 101.82C349.694 102.025 350.282 102.341 350.868 102.767L351.967 99.8667C351.436 99.3979 350.736 99.0203 349.867 98.7339C349.001 98.4474 348.101 98.3042 347.167 98.3042C345.608 98.3042 344.268 98.6053 343.148 99.2075C342.028 99.8065 341.171 100.65 340.575 101.737C339.983 102.824 339.686 104.1 339.686 105.565C339.686 107.033 339.983 108.314 340.575 109.408C341.171 110.498 342.028 111.345 343.148 111.947ZM234.168 101.527L234.168 112.625L237.85 112.625L237.85 101.527L242.327 101.527L242.327 98.5239L229.69 98.5239L229.69 101.527L234.168 101.527ZM285.728 112.625L285.728 98.5239L295.689 98.5239L295.689 101.366L289.248 101.366L289.248 104.046L295.23 104.046L295.23 106.883L289.248 106.883L289.248 109.784L295.689 109.784L295.689 112.625L285.728 112.625ZM395.788 112.625L395.788 98.5239L399.469 98.5239L399.469 103.963L405.29 103.963L405.29 98.5239L408.947 98.5239L408.947 112.625L405.29 112.625L405.29 106.986L399.469 106.986L399.469 112.625L395.788 112.625Z" fill="rgb(68,159,15)" fill-rule="evenodd" />
</svg>
