<svg width="0" height="0" class="hidden">
  <symbol xmlns="http://www.w3.org/2000/svg" xmlns:xlink="http://www.w3.org/1999/xlink" fill="none" customFrame="#000000" viewBox="0 0 40 40" id="announcement">
    <rect id="announcement" width="40.000000" height="40.000000" x="0.000000" y="0.000000" fill="rgb(255,255,255)" fill-opacity="0"></rect>
    <rect id="Icon Background" width="40.000000" height="40.000000" x="0.000000" y="0.000000" rx="20.000000" fill="currentColor"></rect>
    <path id="Shape" d="M29.3061 9.61633L29.3061 16.3265C30.7755 16.3265 31.6571 17.3551 31.6571 18.6775C31.6571 20 30.7755 21.0286 29.3061 21.0286L29.3061 27.6898C29.3061 28.8653 27.8367 29.1592 27.0531 28.3755L22.7429 24.1633C22.0572 23.5755 21.1755 23.1837 20.2449 23.1837L12.8 23.1837C10.2531 23.1837 8.2449 21.2735 8.2449 18.7266L8.2449 18.6286C8.2449 16.0817 10.2531 13.8776 12.8 13.8286L20.2449 13.8286C21.1265 13.8286 22.0082 13.5837 22.6939 12.9959L27.0531 8.88165C27.8367 8.09796 29.3061 8.4408 29.3061 9.61633ZM18.3837 29.7469L17.7469 29.2571C17.0612 28.7674 17.0612 27.7878 17.0612 27.298L17.0612 25.8776C17.0612 25.4857 16.7184 25.1429 16.3265 25.1429L13.3878 25.1429C12.9959 25.1429 12.6531 25.4857 12.6531 25.8776L12.6531 29.649C12.6531 30.9714 13.4367 32 14.6612 32L17.0612 32C18.4817 32 18.5796 31.0204 18.5796 31.0204C18.5796 31.0204 18.8245 30.1388 18.3837 29.7469Z" fill="rgb(255,255,255)" fill-rule="evenodd"></path>
  </symbol>
  <symbol xmlns="http://www.w3.org/2000/svg" xmlns:xlink="http://www.w3.org/1999/xlink" fill="none" customFrame="#000000" viewBox="0 0 40 40" id="apex">
    <rect id="apex" width="40.000000" height="40.000000" x="0.000000" y="0.000000" fill="rgb(255,255,255)" fill-opacity="0"></rect>
    <rect id="Icon Background" width="40.000000" height="40.000000" x="0.000000" y="0.000000" rx="20.000000" fill="currentColor"></rect>
    <path id="Shape" d="M9.9592 10.351L19.4612 17.9428C19.8531 18.2367 19.8531 18.8245 19.4612 19.1183L9.9592 26.7102C9.66531 26.9551 9.22449 26.9061 8.97961 26.5632L8.14694 25.2898C7.90204 24.9959 8 24.5061 8.29388 24.2612L15.0531 18.8735C15.298 18.6775 15.298 18.2857 15.0531 18.0898L8.29388 12.702C8 12.4571 7.90204 12.0163 8.14694 11.6735L8.97961 10.4979C9.22449 10.1551 9.66531 10.1061 9.9592 10.351ZM17.551 26.8571L30.7755 26.8571C31.1673 26.8571 31.5102 27.1999 31.5102 27.5918L31.5102 29.0612C31.5102 29.4531 31.1673 29.7959 30.7755 29.7959L17.551 29.7959C17.1592 29.7959 16.8163 29.4531 16.8163 29.0612L16.8163 27.5918C16.8163 27.1999 17.1592 26.8571 17.551 26.8571Z" fill="rgb(255,255,255)" fill-rule="evenodd"></path>
  </symbol>
  <symbol xmlns="http://www.w3.org/2000/svg" xmlns:xlink="http://www.w3.org/1999/xlink" fill="none" customFrame="#000000" viewBox="0 0 40 40" id="call">
    <rect id="call" width="40.000000" height="40.000000" x="0.000000" y="0.000000" fill="rgb(255,255,255)" fill-opacity="0"></rect>
    <rect id="Icon Background" width="40.000000" height="40.000000" x="0.000000" y="0.000000" rx="20.000000" fill="currentColor"></rect>
    <path id="Shape" d="M30.56 25.664L27.632 23.312C26.96 22.784 26 22.736 25.328 23.264L22.832 25.088C22.544 25.328 22.112 25.28 21.824 24.992L18.08 21.632L14.72 17.888C14.432 17.6 14.432 17.216 14.624 16.88L16.448 14.384C16.976 13.712 16.928 12.752 16.4 12.08L14.048 9.15198C13.328 8.28796 12.032 8.19196 11.216 9.008L8.81598 11.504C8.43198 11.888 8.23999 12.464 8.23999 12.992C8.47998 17.888 10.688 22.544 13.952 25.808C17.216 29.072 21.872 31.28 26.768 31.5199C27.296 31.568 27.824 31.328 28.208 30.944L30.704 28.448C31.52 27.68 31.472 26.336 30.56 25.664Z" fill="rgb(255,255,255)" fill-rule="evenodd"></path>
  </symbol>
  <symbol xmlns="http://www.w3.org/2000/svg" xmlns:xlink="http://www.w3.org/1999/xlink" fill="none" customFrame="#000000" viewBox="0 0 40 40" id="email">
    <rect id="email" width="40.000000" height="40.000000" x="0.000000" y="0.000000" fill="rgb(255,255,255)" fill-opacity="0"></rect>
    <rect id="Icon Background" width="40.000000" height="40.000000" x="0.000000" y="0.000000" rx="20.000000" fill="currentColor"></rect>
    <path id="Shape" d="M19.472 22.208C19.76 22.496 20.192 22.496 20.48 22.208L31.328 12.128C31.568 11.744 31.52 11.12 30.752 11.12L9.248 11.168C8.672 11.168 8.192 11.696 8.62401 12.176L19.472 22.208ZM30.56 15.632C30.944 15.296 31.52 15.584 31.52 16.064L31.52 26.96C31.52 28.016 30.656 28.88 29.6 28.88L10.4 28.88C9.34399 28.88 8.48 28.016 8.48 26.96C8.48 24.08 8.48 18.224 8.528 16.064C8.528 15.536 9.10399 15.296 9.48799 15.632L17.936 23.504C18.512 23.984 19.232 24.272 20 24.272C20.768 24.272 21.488 23.984 22.064 23.456L30.56 15.632Z" fill="rgb(255,255,255)" fill-rule="evenodd"></path>
  </symbol>
  <symbol xmlns="http://www.w3.org/2000/svg" xmlns:xlink="http://www.w3.org/1999/xlink" fill="none" clip-path="url(#clipPath_6)" customFrame="url(#clipPath_6)" viewBox="0 0 40 40" id="facebook">
    <defs>
      <clipPath id="clipPath_6">
        <rect width="40.000000" height="40.000000" x="0.000000" y="0.000000" rx="20.000000" fill="rgb(255,255,255)"></rect>
      </clipPath>
    </defs>
    <rect id="facebook" width="40.000000" height="40.000000" x="0.000000" y="0.000000" rx="20.000000" fill="currentColor"></rect>
    <path id="Shape" d="M32 20.0733C32 13.4054 26.6274 8 20 8C13.3726 8 8 13.4054 8 20.0733C8 26.0994 12.3882 31.0943 18.125 32L18.125 23.5632L15.0781 23.5632L15.0781 20.0733L18.125 20.0733L18.125 17.4134C18.125 14.3876 19.9165 12.7162 22.6576 12.7162C23.9705 12.7162 25.3438 12.952 25.3438 12.952L25.3438 15.9231L23.8306 15.9231C22.3399 15.9231 21.875 16.8538 21.875 17.8086L21.875 20.0733L25.2032 20.0733L24.6712 23.5632L21.875 23.5632L21.875 32C27.6117 31.0943 32 26.0994 32 20.0733Z" fill="rgb(255,255,255)" fill-rule="evenodd"></path>
  </symbol>
  <symbol xmlns="http://www.w3.org/2000/svg" xmlns:xlink="http://www.w3.org/1999/xlink" fill="none" clip-path="url(#clipPath_7)" customFrame="url(#clipPath_7)" viewBox="0 0 40 40" id="instagram">
    <defs>
      <clipPath id="clipPath_7">
        <rect width="40.000000" height="40.000000" x="0.000000" y="0.000000" rx="20.000000" fill="rgb(255,255,255)"></rect>
      </clipPath>
    </defs>
    <rect id="instagram" width="40.000000" height="40.000000" x="0.000000" y="0.000000" rx="20.000000" fill="currentColor"></rect>
    <path id="Shape" d="M25.28 32L14.72 32C11.0105 32 8 28.9895 8 25.28L8 14.72C8 11.0105 11.0105 8 14.72 8L25.28 8C28.9895 8 32 11.0105 32 14.72L32 25.28C32 28.9895 28.9895 32 25.28 32ZM25.22 11L14.78 11C12.6935 11 11 12.6935 11 14.78L11 25.22C11 27.3065 12.6935 29 14.78 29L25.22 29C27.3065 29 29 27.3065 29 25.22L29 14.78C29 12.6935 27.3065 11 25.22 11ZM26 12.5C26.828 12.5 27.5 13.172 27.5 14C27.5 14.828 26.828 15.5 26 15.5C25.172 15.5 24.5 14.828 24.5 14C24.5 13.172 25.172 12.5 26 12.5ZM20 14C23.312 14 26 16.688 26 20C26 23.312 23.312 26 20 26C16.688 26 14 23.312 14 20C14 16.688 16.688 14 20 14ZM20 17C21.656 17 23 18.344 23 20C23 21.656 21.656 23 20 23C18.344 23 17 21.656 17 20C17 18.344 18.344 17 20 17Z" fill="rgb(255,255,255)" fill-rule="evenodd"></path>
  </symbol>
  <symbol xmlns="http://www.w3.org/2000/svg" xmlns:xlink="http://www.w3.org/1999/xlink" fill="none" customFrame="#000000" viewBox="0 0 40 40" id="lead_convert">
    <rect id="lead_convert" width="40.000000" height="40.000000" x="0.000000" y="0.000000" fill="rgb(255,255,255)" fill-opacity="0"></rect>
    <rect id="Icon Background" width="40.000000" height="40.000000" x="0.000000" y="0.000000" rx="20.000000" fill="currentColor"></rect>
    <path id="Shape" d="M20.8 21.15C20.5 21.4499 20.5 21.9 20.8 22.1999L21.85 23.25C22.15 23.55 22.6 23.55 22.9 23.25L29.65 16.5C29.95 16.1999 29.95 15.75 29.65 15.4499L22.95 8.69995C22.65 8.39996 22.2 8.39996 21.9 8.69995L20.85 9.75C20.55 10.05 20.55 10.5 20.85 10.8L23.7 13.6C24.5 14.5 23.2 14.4499 23.2 14.4499L19.2 14.4499C14.45 14.5 10.4 18.4 10.5 23.15C10.6 27.75 14.35 31.5 19 31.5L20.75 31.5C21.15 31.5 21.5 31.1499 21.5 30.75L21.5 29.25C21.5 28.85 21.15 28.5 20.75 28.5L19.15 28.5C16.3 28.5 13.8 26.4 13.5 23.55C13.2 20.25 15.8 17.5 19 17.5L23 17.5L23.3 17.5C23.65 17.6 23.8 18.05 23.55 18.35L20.8 21.15Z" fill="rgb(255,255,255)" fill-rule="evenodd"></path>
  </symbol>
  <symbol xmlns="http://www.w3.org/2000/svg" xmlns:xlink="http://www.w3.org/1999/xlink" fill="none" customFrame="#000000" viewBox="0 0 40 40" id="manage_perm_sets">
    <rect id="manage_perm_sets" width="40.000000" height="40.000000" x="0.000000" y="0.000000" fill="rgb(255,255,255)" fill-opacity="0"></rect>
    <rect id="Icon Background" width="40.000000" height="40.000000" x="0.000000" y="0.000000" rx="20.000000" fill="currentColor"></rect>
    <path id="Shape" d="M29.5 8L10.5 8C9.09998 8 8 9.09998 8 10.5L8 29.5C8 30.85 9.09998 32 10.5 32L29.5 32C30.85 32 32 30.9 32 29.5L32 10.5C32 9.09998 30.9 8 29.5 8ZM28.7 29.5L11.3 29.5C10.85 29.5 10.5 29.15 10.5 28.7L10.5 11.3C10.5 10.85 10.85 10.5 11.3 10.5L28.7 10.5C29.15 10.5 29.5 10.85 29.5 11.3L29.5 28.7C29.5 29.15 29.15 29.5 28.7 29.5ZM17.95 12.95L13.8 12.95C13.35 12.95 12.95 13.3 12.95 13.8L12.95 17.95C12.95 18.4 13.3 18.8 13.8 18.8L17.95 18.8C18.4 18.8 18.8 18.45 18.8 17.95L18.8 13.8C18.75 13.35 18.4 12.95 17.95 12.95ZM22.05 12.95L26.2 12.95C26.65 12.95 27.05 13.35 27.05 13.8L27.05 17.95C27.05 18.45 26.65 18.8 26.2 18.8L22.05 18.8C21.55 18.8 21.2 18.4 21.2 17.95L21.2 13.8C21.2 13.3 21.6 12.95 22.05 12.95ZM17.95 21.25L13.8 21.25C13.35 21.25 12.95 21.6 12.95 22.1L12.95 26.25C12.95 26.7 13.3 27.1 13.8 27.1L17.95 27.1C18.4 27.1 18.8 26.75 18.8 26.25L18.8 22.1C18.75 21.6 18.4 21.25 17.95 21.25ZM22.05 21.25L26.2 21.25C26.65 21.25 27.05 21.6 27.05 22.1L27.05 26.25C27.05 26.75 26.65 27.1 26.2 27.1L22.05 27.1C21.55 27.1 21.2 26.7 21.2 26.25L21.2 22.1C21.2 21.6 21.6 21.25 22.05 21.25Z" fill="rgb(255,255,255)" fill-rule="evenodd"></path>
  </symbol>
  <symbol xmlns="http://www.w3.org/2000/svg" xmlns:xlink="http://www.w3.org/1999/xlink" fill="none" customFrame="#000000" viewBox="0 0 40 40" id="new_account">
    <rect id="new_account" width="40.000000" height="40.000000" x="0.000000" y="0.000000" fill="rgb(255,255,255)" fill-opacity="0"></rect>
    <rect id="Icon Background" width="40.000000" height="40.000000" x="0.000000" y="0.000000" rx="20.000000" fill="currentColor"></rect>
    <path id="Shape" d="M23.3796 16.0326L23.3796 11.2816C23.3815 11.2485 23.3824 11.2164 23.3824 11.1852C23.3824 10.4299 22.8311 10.204 22.5959 10.204L8.88161 10.204C8.09793 10.204 7.99997 11.0367 7.99997 11.0857L7.99997 29.7959L18.5306 29.7959L18.5306 17.8448C18.5306 17.8448 18.5306 16.8652 19.4122 16.8652L22.5959 16.8652C23.0857 16.8652 23.3796 16.3755 23.3796 16.0326ZM11.6245 15.2001C12.1143 15.2001 12.4571 14.8083 12.4571 14.3674L12.5061 14.3674L12.5061 13.5348C12.5061 13.094 12.1143 12.7021 11.6734 12.7021L10.8408 12.7021C10.351 12.7021 10.0081 13.094 10.0081 13.5348L10.0081 14.3674C10.0081 14.8083 10.4 15.2001 10.8408 15.2001L11.6245 15.2001ZM16.0816 15.2001C16.5714 15.2001 16.9142 14.8083 16.9142 14.3674L16.9142 13.5348C16.9142 13.094 16.5224 12.7021 16.0816 12.7021L15.2489 12.7021C14.7591 12.7021 14.4163 13.094 14.4163 13.5348L14.4163 14.3674C14.4163 14.8083 14.8081 15.2001 15.2489 15.2001L16.0816 15.2001ZM20.5387 15.2001C21.0285 15.2001 21.3714 14.8083 21.3714 14.3674L21.4203 14.3674L21.4203 13.5348C21.4203 13.094 21.0285 12.7021 20.5877 12.7021L19.755 12.7021C19.2652 12.7021 18.9224 13.094 18.9224 13.5348L18.9224 14.3674C18.9224 14.8083 19.3142 15.2001 19.755 15.2001L20.5387 15.2001ZM11.6245 19.3632C12.1143 19.3632 12.4571 18.9714 12.4571 18.5305L12.5061 18.5305L12.5061 17.6979C12.5061 17.2571 12.1143 16.8652 11.6734 16.8652L10.8408 16.8652C10.351 16.8652 10.0081 17.2571 10.0081 17.6979L10.0081 18.5305C10.0081 18.9714 10.4 19.3632 10.8408 19.3632L11.6245 19.3632ZM16.0816 19.3632C16.5714 19.3632 16.9142 18.9714 16.9142 18.5305L16.9142 17.6979C16.9142 17.2571 16.5224 16.8652 16.0816 16.8652L15.2489 16.8652C14.7591 16.8652 14.4163 17.2571 14.4163 17.6979L14.4163 18.5305C14.4163 18.9714 14.8081 19.3632 15.2489 19.3632L16.0816 19.3632ZM30.6776 19.3632C30.9225 19.3632 31.5592 19.6081 31.5102 20.4408L31.5102 29.7959L20.9796 29.7959L20.9796 20.2449C20.9796 20.1959 21.0776 19.3632 21.8613 19.3632L30.6776 19.3632ZM11.6245 23.5268C12.1143 23.5268 12.4571 23.1349 12.4571 22.6941L12.5061 22.6941L12.5061 21.8615C12.5061 21.4207 12.1143 21.0288 11.6734 21.0288L10.8408 21.0288C10.351 21.0288 10.0081 21.4207 10.0081 21.8615L10.0081 22.6941C10.0081 23.1349 10.4 23.5268 10.8408 23.5268L11.6245 23.5268ZM16.0816 23.5268C16.5714 23.5268 16.9142 23.1349 16.9142 22.6941L16.9142 21.8615C16.9142 21.4207 16.5224 21.0288 16.0816 21.0288L15.2489 21.0288C14.7591 21.0288 14.4163 21.4207 14.4163 21.8615L14.4163 22.6941C14.4163 23.1349 14.8081 23.5268 15.2489 23.5268L16.0816 23.5268ZM24.6041 23.9672C25.0939 23.9672 25.4367 23.5754 25.4367 23.1345L25.4367 22.3019C25.4367 21.8611 25.0449 21.4692 24.6041 21.4692L23.7714 21.4692C23.2816 21.4692 22.9388 21.8611 22.9388 22.3019L22.9388 23.1345C22.9388 23.5754 23.3306 23.9672 23.7714 23.9672L24.6041 23.9672ZM28.6694 23.9672C29.1592 23.9672 29.502 23.5754 29.502 23.1345L29.502 22.3019C29.502 21.8611 29.1102 21.4692 28.6694 21.4692L27.8367 21.4692C27.3469 21.4692 27.0041 21.8611 27.0041 22.3019L27.0041 23.1345C27.0041 23.5754 27.3959 23.9672 27.8367 23.9672L28.6694 23.9672ZM11.6245 27.7387C12.1143 27.7387 12.4571 27.3469 12.4571 26.906L12.5061 26.906L12.5061 26.0734C12.5061 25.6326 12.1143 25.2407 11.6734 25.2407L10.8408 25.2407C10.351 25.2407 10.0081 25.6326 10.0081 26.0734L10.0081 26.906C10.0081 27.3469 10.4 27.7387 10.8408 27.7387L11.6245 27.7387ZM16.0816 27.7387C16.5714 27.7387 16.9142 27.3469 16.9142 26.906L16.9142 26.0734C16.9142 25.6326 16.5224 25.2407 16.0816 25.2407L15.2489 25.2407C14.7591 25.2407 14.4163 25.6326 14.4163 26.0734L14.4163 26.906C14.4163 27.3469 14.8081 27.7387 15.2489 27.7387L16.0816 27.7387ZM25.4367 27.2981C25.4367 27.739 25.0939 28.1308 24.6041 28.1308L23.7714 28.1308C23.3306 28.1308 22.9388 27.739 22.9388 27.2981L22.9388 26.4655C22.9388 26.0247 23.2816 25.6328 23.7714 25.6328L24.6041 25.6328C25.0449 25.6328 25.4367 26.0247 25.4367 26.4655L25.4367 27.2981ZM29.502 27.2981C29.502 27.739 29.1592 28.1308 28.6694 28.1308L27.8367 28.1308C27.3959 28.1308 27.0041 27.739 27.0041 27.2981L27.0041 26.4655C27.0041 26.0247 27.3469 25.6328 27.8367 25.6328L28.6694 25.6328C29.1102 25.6328 29.502 26.0247 29.502 26.4655L29.502 27.2981Z" fill="rgb(255,255,255)" fill-rule="evenodd"></path>
  </symbol>
  <symbol xmlns="http://www.w3.org/2000/svg" xmlns:xlink="http://www.w3.org/1999/xlink" fill="none" customFrame="#000000" viewBox="0 0 40 40" id="new_contact">
    <rect id="new_contact" width="40.000000" height="40.000000" x="0.000000" y="0.000000" fill="rgb(255,255,255)" fill-opacity="0"></rect>
    <rect id="Icon Background" width="40.000000" height="40.000000" x="0.000000" y="0.000000" rx="20.000000" fill="currentColor"></rect>
    <path id="Shape" d="M10.4 11.84L29.6 11.84C30.944 11.84 32 12.8961 32 14.2401L32 25.76C32 27.104 30.944 28.16 29.6 28.16L10.4 28.16C9.104 28.16 8 27.056 8 25.76L8 14.2401C8 12.8961 9.104 11.84 10.4 11.84ZM12.512 25.376L19.424 25.376C20.192 25.376 20.816 24.5601 20.672 23.744C20.624 22.544 19.376 21.776 18.08 21.2C17.12 20.864 17.024 20.48 17.024 20.096C17.024 19.664 17.264 19.328 17.6 19.04C18.128 18.608 18.416 17.888 18.416 17.072C18.416 15.584 17.504 14.288 15.92 14.288C14.336 14.288 13.424 15.536 13.424 17.072C13.424 17.84 13.712 18.56 14.24 19.04C14.576 19.328 14.816 19.712 14.816 20.096C14.816 20.48 14.672 20.864 13.76 21.248C12.464 21.824 11.216 22.544 11.168 23.744C11.168 24.5601 11.744 25.376 12.512 25.376ZM27.968 19.04C28.4 19.04 28.784 18.656 28.784 18.224L28.832 18.224L28.832 17.024C28.832 16.544 28.448 16.208 28.016 16.208L22.016 16.208C21.584 16.208 21.2 16.592 21.2 17.024L21.2 18.224C21.2 18.704 21.584 19.04 22.016 19.04L27.968 19.04ZM28.784 22.592C28.784 23.024 28.4 23.408 27.968 23.408L24.368 23.408C23.936 23.408 23.552 23.072 23.552 22.592L23.552 21.392C23.552 20.96 23.936 20.576 24.368 20.576L27.968 20.576C28.4 20.576 28.784 20.912 28.784 21.392L28.784 22.592Z" fill="rgb(255,255,255)" fill-rule="evenodd"></path>
  </symbol>
  <symbol xmlns="http://www.w3.org/2000/svg" xmlns:xlink="http://www.w3.org/1999/xlink" fill="none" customFrame="#000000" viewBox="0 0 40 40" id="new_custom15">
    <rect id="new_custom15" width="40.000000" height="40.000000" x="0.000000" y="0.000000" fill="rgb(255,255,255)" fill-opacity="0"></rect>
    <rect id="Icon Background" width="40.000000" height="40.000000" x="0.000000" y="0.000000" rx="20.000000" fill="currentColor"></rect>
    <path id="Shape" d="M28 18.45C26.6 17.85 26.4 17.35 26.4 16.75C26.4 16.15 26.8 15.65 27.3 15.2C28.15 14.45 28.6 13.4 28.6 12.2C28.6 9.95001 27.2 8 24.65 8C22.5 8 21.15 9.45001 20.8 11.3C20.75 11.45 20.85 11.6 20.95 11.7C22.75 13 23.85 15.15 23.85 17.75C23.85 19.55 23.25 21.2 22.15 22.45C22 22.65 22.05 22.95 22.3 23.1C23 23.4 23.8 23.8 24.6 24.2C24.85 24.35 25.1 24.45 25.4 24.45L30 24.45C31.1 24.45 32 23.55 32 22.5L32 22.2C32 20.3 30.05 19.3 28 18.45ZM18.95 23.05C18.95 23.75 19.15 24.35 20.85 25.05C23.3 26.05 25.6 27.2 25.65 29.35L25.65 29.7C25.65 30.95 24.55 32 23.25 32L10.45 32C9.09999 32 8 30.95 8.04999 29.7L8.04999 29.35C8.09999 27.2 10.4 26.05 12.85 25.05C14.5 24.35 14.75 23.75 14.75 23.05C14.75 22.35 14.25 21.7 13.7 21.2C12.7 20.35 12.2 19.15 12.2 17.7C12.2 15.1 13.9 12.8 16.85 12.8C19.8 12.8 21.5 15.05 21.5 17.7C21.5 19.1 20.95 20.3 20 21.2C19.45 21.75 18.95 22.35 18.95 23.05Z" fill="rgb(255,255,255)" fill-rule="evenodd"></path>
  </symbol>
  <symbol xmlns="http://www.w3.org/2000/svg" xmlns:xlink="http://www.w3.org/1999/xlink" fill="none" customFrame="#000000" viewBox="0 0 40 40" id="new_custom19">
    <rect id="new_custom19" width="40.000000" height="40.000000" x="0.000000" y="0.000000" fill="rgb(255,255,255)" fill-opacity="0"></rect>
    <rect id="Icon Background" width="40.000000" height="40.000000" x="0.000000" y="0.000000" rx="20.000000" fill="currentColor"></rect>
    <path id="Shape" d="M31.232 13.376C31.136 13.088 30.8 13.04 30.56 13.232L26.672 17.12C26.384 17.408 25.904 17.408 25.616 17.12L22.88 14.384C22.592 14.096 22.592 13.616 22.88 13.328L26.816 9.43998C27.008 9.24798 26.912 8.91198 26.672 8.76798C26 8.57598 25.28 8.47998 24.608 8.47998C20.528 8.47998 17.264 11.984 17.744 16.16C17.84 16.832 17.984 17.408 18.224 17.984L9.24799 26.912C8.19199 27.968 8.19199 29.696 9.24799 30.704C9.77599 31.232 10.496 31.52 11.168 31.52C11.84 31.52 12.56 31.232 13.088 30.704L22.016 21.776C22.592 22.016 23.216 22.16 23.84 22.256C28.016 22.736 31.52 19.472 31.52 15.392C31.52 14.672 31.424 14 31.232 13.376Z" fill="rgb(255,255,255)" fill-rule="evenodd"></path>
  </symbol>
  <symbol xmlns="http://www.w3.org/2000/svg" xmlns:xlink="http://www.w3.org/1999/xlink" fill="none" customFrame="#000000" viewBox="0 0 40 40" id="new_custom25">
    <rect id="new_custom25" width="40.000000" height="40.000000" x="0.000000" y="0.000000" fill="rgb(255,255,255)" fill-opacity="0"></rect>
    <rect id="Icon Background" width="40.000000" height="40.000000" x="0.000000" y="0.000000" rx="20.000000" fill="currentColor"></rect>
    <path id="Shape" d="M14.192 9.24805C14.384 9.44006 14.336 9.8241 14.096 9.92005C12.32 10.88 10.832 12.2241 9.68001 13.76C9.48801 14 9.15201 14 9.00801 13.76C8.576 13.088 8.384 12.176 8.528 11.264C8.81601 9.8241 10.016 8.67212 11.456 8.4801C12.512 8.33606 13.472 8.62402 14.192 9.24805ZM31.424 11.264C31.136 9.8241 29.984 8.672 28.496 8.47998C27.44 8.33606 26.48 8.672 25.76 9.24805C25.52 9.44006 25.568 9.72803 25.856 9.92005C27.632 10.832 29.12 12.176 30.272 13.808C30.416 14.0481 30.752 14.0481 30.944 13.808C31.424 13.088 31.616 12.224 31.424 11.264ZM20 10.7843C14.288 10.7843 9.63203 15.4403 9.63203 21.1524C9.63203 23.4563 10.4 25.6163 11.648 27.2963L10.064 28.8803C9.44003 29.5043 9.44003 30.4644 10.064 31.0883C10.352 31.3764 10.736 31.5684 11.12 31.5684C11.504 31.5684 11.888 31.4243 12.176 31.0883L13.76 29.5043C15.536 30.7523 17.696 31.5203 20 31.5203C22.304 31.5203 24.464 30.7523 26.144 29.5043L27.728 31.0883C28.064 31.3764 28.448 31.5684 28.832 31.5684C29.216 31.5684 29.6 31.4243 29.888 31.0883C30.512 30.4644 30.512 29.5043 29.888 28.8803L28.304 27.2963C29.552 25.6163 30.32 23.4563 30.32 21.1524C30.368 15.4403 25.712 10.7843 20 10.7843ZM20 13.8558C15.968 13.8558 12.704 17.1199 12.704 21.1519C12.704 25.1839 15.968 28.4479 20 28.4479C24.032 28.4479 27.296 25.1839 27.296 21.1519C27.296 17.1199 24.032 13.8558 20 13.8558ZM21.152 17.6959L21.152 20.672L23.504 23.0239C23.984 23.4559 23.984 24.1759 23.504 24.656C23.264 24.896 22.976 24.992 22.688 24.992C22.4 24.992 22.112 24.896 21.872 24.656L19.184 21.9679C18.944 21.776 18.848 21.44 18.848 21.152L18.848 17.6959C18.848 17.0239 19.328 16.544 20 16.544C20.672 16.544 21.152 17.0239 21.152 17.6959Z" fill="rgb(255,255,255)" fill-rule="evenodd"></path>
  </symbol>
  <symbol xmlns="http://www.w3.org/2000/svg" xmlns:xlink="http://www.w3.org/1999/xlink" fill="none" customFrame="#000000" viewBox="0 0 40 40" id="new_custom27">
    <rect id="new_custom27" width="40.000000" height="40.000000" x="0.000000" y="0.000000" fill="rgb(255,255,255)" fill-opacity="0"></rect>
    <rect id="Icon Background" width="40.000000" height="40.000000" x="0.000000" y="0.000000" rx="20.000000" fill="currentColor"></rect>
    <path id="Shape" d="M29.75 24.7998L10.25 24.7998C9.84998 24.7998 9.5 24.4998 9.5 24.0498L9.5 12.1998C9.5 10.9998 10.5 9.99982 11.75 9.99982L28.25 9.99982C29.5 9.99982 30.5 10.9998 30.5 12.1998L30.5 24.0498C30.5 24.4498 30.15 24.7998 29.75 24.7998ZM12.5 12.2003C12.1 12.2003 11.75 12.5503 11.75 12.9503L11.75 21.8503C11.75 22.2503 12.1 22.6003 12.5 22.6003L27.5 22.6003C27.9 22.6003 28.25 22.2503 28.25 21.8503L28.25 12.9503C28.25 12.5503 27.9 12.2003 27.5 12.2003L12.5 12.2003ZM23 27.05L31.25 27.05C31.65 27.05 32 27.35 32 27.8C32 29 31 30 29.75 30L10.25 30C9 30 8 29 8 27.8C8 27.4 8.34998 27.05 8.75 27.05L17 27.05C17.4 27.05 17.75 27.4 17.75 27.8C17.75 28.2 18.1 28.55 18.5 28.55L21.5 28.55C21.9 28.55 22.25 28.2 22.25 27.8C22.25 27.4 22.6 27.05 23 27.05Z" fill="rgb(255,255,255)" fill-rule="evenodd"></path>
  </symbol>
  <symbol xmlns="http://www.w3.org/2000/svg" xmlns:xlink="http://www.w3.org/1999/xlink" fill="none" customFrame="#000000" viewBox="0 0 40 40" id="new_custom29">
    <rect id="new_custom29" width="40.000000" height="40.000000" x="0.000000" y="0.000000" fill="rgb(255,255,255)" fill-opacity="0"></rect>
    <rect id="Icon Background" width="40.000000" height="40.000000" x="0.000000" y="0.000000" rx="20.000000" fill="currentColor"></rect>
    <path id="Shape" d="M23.2501 8L11.9001 8C10.6 8 9.50006 9.09998 9.50006 10.4L9.50006 29.6C9.50006 30.9 10.6 32 11.9001 32L23.2001 32C24.55 32 25.6 30.9 25.6 29.6L25.6 10.4C25.6501 9.09998 24.55 8 23.2501 8ZM29.65 11.2L28.9 11.2C28.4 11.2 28.05 11.6 28.05 12.1L28.05 28C28.05 28.05 28.05 28.1 28.1 28.15L29.1 29.55C29.2 29.65 29.3 29.65 29.4 29.55L30.4 28.15C30.5 28.1 30.5 28.1 30.5 28L30.5 12.1C30.5 11.6 30.15 11.2 29.65 11.2ZM23.2501 27.2001C23.2501 27.6501 22.9001 28.0001 22.4501 28.0001L12.7501 28.0001C12.3 28.0001 11.9501 27.6501 11.9501 27.2001L11.9501 12.0001C11.9501 11.5501 12.3 11.2001 12.7501 11.2001L22.4501 11.2001C22.9001 11.2001 23.2501 11.5501 23.2501 12.0001L23.2501 27.2001ZM16.4001 30C16.4001 30.7 16.9001 31.2 17.6001 31.2C18.2501 31.2 18.8 30.7 18.8 30C18.8 29.3 18.3 28.8 17.6001 28.8C16.9001 28.8 16.4001 29.3 16.4001 30Z" fill="rgb(255,255,255)" fill-rule="evenodd"></path>
  </symbol>
  <symbol xmlns="http://www.w3.org/2000/svg" xmlns:xlink="http://www.w3.org/1999/xlink" fill="none" customFrame="#000000" viewBox="0 0 40 40" id="new_custom44">
    <rect id="new_custom44" width="40.000000" height="40.000000" x="0.000000" y="0.000000" fill="rgb(255,255,255)" fill-opacity="0"></rect>
    <rect id="Icon Background" width="40.000000" height="40.000000" x="0.000000" y="0.000000" rx="20.000000" fill="currentColor"></rect>
    <path id="Shape" d="M27.35 11.55C25.3 8.90002 23.6 8 20 8C18.4 8 16.45 8.65002 15.65 8.79999L15.65 8.79999C15.65 8.34998 15.3 8 14.85 8L13.65 8L13.25 8C12.8 8 12.45 8.34998 12.45 8.79999L12.45 12C12.45 12.45 12.8 12.8 13.25 12.8L14.8 12.8C15.25 12.8 15.6 12.45 15.6 12L16.5 12C17.15 12 17.65 12.5 17.65 13.15L17.65 13.2C17.65 13.9 18.15 14.4 18.85 14.4L18.85 20.8C18 20.8 17.3 21.5 17.3 22.4L17.3 29.6C17.3 30.9 18.35 32 19.65 32L20.45 32C21.75 32 22.8 30.9 22.8 29.6L22.8 22.4C22.8 21.5 22.1 20.8 21.25 20.8L21.25 14.4C21.9 14.4 22.45 13.5 22.45 12.85L22.45 12.8C22.45 12.2 22.9 11.7 23.5 11.7C25.05 11.6 25.95 12.25 26.35 12.6C26.6 12.8 27 12.85 27.2 12.65L27.2 12.65C27.55 12.4 27.65 11.9 27.35 11.55Z" fill="rgb(255,255,255)" fill-rule="evenodd"></path>
  </symbol>
  <symbol xmlns="http://www.w3.org/2000/svg" xmlns:xlink="http://www.w3.org/1999/xlink" fill="none" customFrame="#000000" viewBox="0 0 40 40" id="new_custom63">
    <rect id="new_custom63" width="40.000000" height="40.000000" x="0.000000" y="0.000000" fill="rgb(255,255,255)" fill-opacity="0"></rect>
    <rect id="Icon Background" width="40.000000" height="40.000000" x="0.000000" y="0.000000" rx="20.000000" fill="currentColor"></rect>
    <path id="Shape" d="M32 20C32 20.7 31.5 21.2 30.8 21.2L28.8 21.2L28.8 23.6L30.8 23.6C31.5 23.6 32 24.1 32 24.8C32 25.5 31.5 26 30.8 26L28.8 26L28.8 26.4C28.8 27.7 27.7 28.8 26.4 28.8L26 28.8L26 30.8C26 31.5 25.5 32 24.8 32C24.1 32 23.6 31.5 23.6 30.8L23.6 28.8L21.2 28.8L21.2 30.8C21.2 31.5 20.7 32 20 32C19.3 32 18.8 31.5 18.8 30.8L18.8 28.8L16.4 28.8L16.4 30.8C16.4 31.5 15.9 32 15.2 32C14.5 32 14 31.5 14 30.8L14 28.8L13.6 28.8C12.3 28.8 11.2 27.7 11.2 26.4L11.2 26L9.20001 26C8.5 26 8 25.5 8 24.8C8 24.1 8.5 23.6 9.20001 23.6L11.2 23.6L11.2 21.2L9.20001 21.2C8.5 21.2 8 20.7 8 20C8 19.3 8.5 18.8 9.20001 18.8L11.2 18.8L11.2 16.4L9.20001 16.4C8.5 16.4 8 15.9 8 15.2C8 14.5 8.5 14 9.20001 14L11.2 14L11.2 13.6C11.2 12.3 12.3 11.2 13.6 11.2L14 11.2L14 9.20001C14 8.5 14.5 8 15.2 8C15.9 8 16.4 8.5 16.4 9.20001L16.4 11.2L18.8 11.2L18.8 9.20001C18.8 8.5 19.3 8 20 8C20.7 8 21.2 8.5 21.2 9.20001L21.2 11.2L23.6 11.2L23.6 9.20001C23.6 8.5 24.1 8 24.8 8C25.5 8 26 8.5 26 9.20001L26 11.2L26.4 11.2C27.7 11.2 28.8 12.3 28.8 13.6L28.8 14L30.8 14C31.5 14 32 14.5 32 15.2C32 15.9 31.5 16.4 30.8 16.4L28.8 16.4L28.8 18.8L30.8 18.8C31.5 18.8 32 19.3 32 20ZM26.4 25.2C26.4 25.9 25.9 26.4 25.2 26.4L14.8 26.4C14.1 26.4 13.6 25.9 13.6 25.2L13.6 14.8C13.6 14.1 14.1 13.6 14.8 13.6L25.2 13.6C25.9 13.6 26.4 14.1 26.4 14.8L26.4 25.2ZM24 23.2C24 23.65 23.65 24 23.2 24L16.8 24C16.35 24 16 23.65 16 23.2L16 16.8C16 16.35 16.35 16 16.8 16L23.2 16C23.65 16 24 16.35 24 16.8L24 23.2Z" fill="rgb(255,255,255)" fill-rule="evenodd"></path>
  </symbol>
  <symbol xmlns="http://www.w3.org/2000/svg" xmlns:xlink="http://www.w3.org/1999/xlink" fill="none" customFrame="#000000" viewBox="0 0 40 40" id="new_custom67">
    <rect id="new_custom67" width="40.000000" height="40.000000" x="0.000000" y="0.000000" fill="rgb(255,255,255)" fill-opacity="0"></rect>
    <rect id="Icon Background" width="40.000000" height="40.000000" x="0.000000" y="0.000000" rx="20.000000" fill="currentColor"></rect>
    <path id="Shape" d="M30.3681 14.7681L31.2321 15.4881C31.5201 15.7761 31.6161 16.1601 31.4241 16.3521L31.0401 16.9761C30.8961 17.2161 30.6561 17.3601 30.3681 17.3601C30.2721 17.3601 30.1761 17.3601 30.0801 17.3121L29.0241 16.8801C28.5921 17.2641 28.0641 17.5521 27.5361 17.7441L27.3441 18.8961C27.2961 19.2801 26.9601 19.5681 26.5761 19.5681L25.8081 19.5681C25.4241 19.5681 25.1361 19.2801 25.0401 18.8961L24.8481 17.7921C24.3201 17.6481 23.8401 17.3601 23.4081 16.9761L22.3041 17.4081C22.2081 17.4561 22.1121 17.4561 22.0161 17.4561C21.7761 17.4561 21.488 17.3121 21.3441 17.0721L20.9601 16.4001C20.7681 16.0641 20.8641 15.6321 21.1521 15.3921L22.0161 14.6721C21.9681 14.4321 21.9201 14.1441 21.9201 13.8561C21.9201 13.5681 21.9681 13.3281 22.0161 13.0401L21.1521 12.3201C20.8641 12.0801 20.7681 11.6481 20.9601 11.3121L21.3441 10.6881C21.488 10.4481 21.7281 10.3041 22.0161 10.3041C22.1121 10.3041 22.2081 10.3041 22.3041 10.3521L23.4081 10.8321C23.7105 10.5633 24.0364 10.3416 24.3858 10.1668C24.5356 10.092 24.6897 10.0257 24.8481 9.96814L25.0401 8.86414C25.0881 8.4801 25.4241 8.24011 25.8081 8.24011L26.5761 8.24011C26.9601 8.24011 27.2481 8.4801 27.3441 8.86414L27.5361 10.0161C28.0641 10.1601 28.5441 10.4481 28.9761 10.8321L30.0801 10.4001C30.1761 10.4001 30.2721 10.3521 30.3681 10.3521C30.6081 10.3521 30.8961 10.4961 31.0401 10.7361L31.4241 11.4081C31.6161 11.7441 31.5201 12.1761 31.2321 12.4161L30.3681 13.1361C30.4161 13.3761 30.4641 13.6641 30.4641 13.9521C30.4641 14.2401 30.4161 14.4801 30.3681 14.7681ZM26.1921 16.1121C25.0401 16.1121 24.0801 15.152 24.0801 14.0001C24.0801 12.8481 25.0401 11.8881 26.1921 11.8881C27.3441 11.8881 28.3041 12.8481 28.3041 14.0001C28.3041 15.152 27.392 16.1121 26.1921 16.1121ZM21.5359 20.9119L21.0559 20.0959C20.8639 19.8079 20.5759 19.6159 20.1919 19.6159C20.0959 19.6159 19.9519 19.6639 19.8559 19.7119L18.5119 20.1919C17.9839 19.7119 17.4079 19.4239 16.7359 19.1839L16.4959 17.7919C16.3999 17.3119 16.0159 17.0719 15.5359 17.0719L14.5759 17.0719C14.0959 17.0719 13.7119 17.3599 13.6159 17.8399L13.3759 19.1839C12.7519 19.4239 12.1759 19.7599 11.5999 20.2399L10.2559 19.7599C10.1599 19.7119 10.0159 19.6639 9.91992 19.6639C9.58392 19.6639 9.24793 19.8559 9.05591 20.1439L8.57593 20.9599C8.33594 21.3919 8.43188 21.8719 8.81592 22.2079L9.9679 23.1199C9.87189 23.4559 9.87189 23.7919 9.87189 24.1279C9.87189 24.4159 9.91992 24.7999 9.9679 25.1839L8.86389 26.0959C8.47992 26.3839 8.38391 26.9599 8.6239 27.3439L9.10394 28.1599C9.2959 28.4479 9.58392 28.6399 9.9679 28.6399C10.0639 28.6399 10.2079 28.5919 10.3039 28.5439L11.6479 28.0639C12.1759 28.5439 12.7519 28.8799 13.4239 29.0719L13.6639 30.5119C13.7599 30.9919 14.1439 31.3279 14.6239 31.3279L15.5839 31.3279C16.0639 31.3279 16.4479 30.9919 16.544 30.5119L16.7839 29.0719C17.4559 28.8319 18.0799 28.4479 18.6559 28.0159L19.9039 28.4959C20 28.5439 20.1439 28.5919 20.2399 28.5919C20.5759 28.5919 20.9119 28.3999 21.104 28.1119L21.5839 27.3439C21.8239 26.9119 21.7279 26.3839 21.3439 26.0959L20.2399 25.1839C20.3359 24.8479 20.3359 24.5119 20.3359 24.1759C20.3359 23.8399 20.2879 23.5039 20.2399 23.1199L21.3439 22.2079C21.6319 21.8239 21.7279 21.2959 21.5359 20.9119ZM12.416 24.1279C12.416 25.6159 13.616 26.7679 15.056 26.7679C16.448 26.7679 17.696 25.6159 17.696 24.1279C17.696 22.6399 16.496 21.4879 15.056 21.4879C13.568 21.4879 12.416 22.6399 12.416 24.1279Z" fill="rgb(255,255,255)" fill-rule="evenodd"></path>
  </symbol>
  <symbol xmlns="http://www.w3.org/2000/svg" xmlns:xlink="http://www.w3.org/1999/xlink" fill="none" customFrame="#000000" viewBox="0 0 40 40" id="new_custom68">
    <defs>
      <filter id="pixso_custom_mask_type_alpha">
        <feColorMatrix type="matrix" values="0 0 0 0 1 0 0 0 0 1 0 0 0 0 1 0 0 0 1 0 "></feColorMatrix>
      </filter>
    </defs>
    <mask id="mask_31" width="40.000000" height="40.000000" x="0.000000" y="0.000000" maskUnits="userSpaceOnUse">
      <g filter="url(#pixso_custom_mask_type_alpha)">
        <rect id="Icon Background" width="40.000000" height="40.000000" x="0.000000" y="0.000000" rx="20.000000" fill="currentColor"></rect>
      </g>
    </mask>
    <rect id="new_custom68" width="40.000000" height="40.000000" x="0.000000" y="0.000000" fill="rgb(255,255,255)" fill-opacity="0"></rect>
    <rect id="Icon Background" width="40.000000" height="40.000000" x="0.000000" y="0.000000" rx="20.000000" fill="currentColor"></rect>
    <g mask="url(#mask_31)">
      <g id="new_custom68">
        <path id="Shape" d="M20 8C26.6 8 32 13.4 32 20C32 26.6 26.6 32 20 32C13.4 32 8 26.6 8 20C8 13.4 13.4 8 20 8ZM29.5 18.8002L26.35 18.8002C26.25 15.9502 25.6 13.5002 24.65 11.6002C27.3 13.1002 29.1 15.7002 29.5 18.8002ZM18.8 10.8999L18.8 18.7999L16.05 18.7999C16.25 15.0499 17.45 12.0999 18.8 10.8999ZM18.8 21.1999L18.8 29.0999C17.45 27.9499 16.25 24.9999 16.05 21.1999C16.05 21.1999 18.8 21.1999 18.8 21.1999ZM21.2 29.0999L21.2 21.1999L23.95 21.1999C23.75 24.9499 22.55 27.8999 21.2 29.0999ZM21.2 18.7999L21.2 10.8999C22.55 12.0499 23.75 14.9999 23.95 18.7999L21.2 18.7999ZM15.35 11.6002C14.4 13.5002 13.8 15.9502 13.65 18.8002L10.5 18.8002C10.9 15.7002 12.7 13.1002 15.35 11.6002ZM10.5 21.2L13.65 21.2C13.75 24.05 14.4 26.5 15.35 28.4C12.7 26.9 10.9 24.3 10.5 21.2ZM24.65 28.4C25.6 26.5 26.2 24.05 26.35 21.2L29.5 21.2C29.1 24.3 27.3 26.9 24.65 28.4Z" fill="rgb(255,255,255)" fill-rule="evenodd"></path>
      </g>
    </g>
  </symbol>
  <symbol xmlns="http://www.w3.org/2000/svg" xmlns:xlink="http://www.w3.org/1999/xlink" fill="none" customFrame="#000000" viewBox="0 0 40 40" id="new_custom87">
    <rect id="new_custom87" width="40.000000" height="40.000000" x="0.000000" y="0.000000" fill="rgb(255,255,255)" fill-opacity="0"></rect>
    <rect id="Icon Background" width="40.000000" height="40.000000" x="0.000000" y="0.000000" rx="20.000000" fill="currentColor"></rect>
    <path id="Shape" d="M29.55 8L9.95004 8C9.25003 8 8.75003 8.5 8.75003 9.20001L8.75003 28.4C8.75003 29.1 9.25003 29.6 9.95004 29.6L10.35 29.6L10.35 30.8C10.35 31.5 10.85 32 11.55 32L12.35 32C13 32 13.55 31.5 13.55 30.8L13.55 29.6L26.1 29.6L26.1 30.8C26.1 31.5 26.6 32 27.3 32L28.1 32C28.75 32 29.3 31.5 29.3 30.8L29.3 29.6L29.7 29.6C30.35 29.6 30.9 29.1 30.9 28.4L30.9 9.20001C30.75 8.5 30.25 8 29.55 8ZM11.1 25.9999C11.1 26.7 11.65 27.2 12.3 27.2L27.25 27.2C27.95 27.2 28.45 26.7 28.45 25.9999L28.45 11.5999C28.45 10.8999 27.9 10.3999 27.25 10.3999L12.3 10.3999C11.6 10.3999 11.1 10.8999 11.1 11.5999L11.1 25.9999ZM25.25 12.8L14.25 12.8C13.8 12.8 13.45 13.15 13.45 13.6L13.45 24.0001C13.45 24.4501 13.8 24.8 14.25 24.8L25.25 24.8C25.7 24.8 26.05 24.4501 26.05 24.0001L26.05 13.6C26.05 13.15 25.7 12.8 25.25 12.8ZM23.4 20.0001L20.15 20.0001C19.7 20.8 18.8 21.6 17.7 21.6C16.2 21.6 15.05 20.3 15.05 18.8C15.05 17.3 16.2499 16.0001 17.7 16.0001C18.8 16.0001 19.7499 16.8 20.15 17.6L23.3499 17.6C23.95 17.6 24.4 18.2001 24.4 18.8C24.45 19.4 23.9999 20.0001 23.4 20.0001Z" fill="rgb(255,255,255)" fill-rule="evenodd"></path>
  </symbol>
  <symbol xmlns="http://www.w3.org/2000/svg" xmlns:xlink="http://www.w3.org/1999/xlink" fill="none" customFrame="#000000" viewBox="0 0 40 40" id="new_custom91">
    <rect id="new_custom91" width="40.000000" height="40.000000" x="0.000000" y="0.000000" fill="rgb(255,255,255)" fill-opacity="0"></rect>
    <rect id="Icon Background" width="40.000000" height="40.000000" x="0.000000" y="0.000000" rx="20.000000" fill="currentColor"></rect>
    <path id="Shape" d="M30.4428 12.8712C29.3654 12.491 28.4274 11.699 27.7877 10.6937C27.2979 9.86109 27.2489 7.99988 25.9755 7.99988L13.5346 7.99988C12.2612 7.99988 12.2612 9.86109 11.7224 10.6937C10.8897 11.9672 9.86118 12.3101 8.58771 13.0448C7.49417 13.6757 8.20645 16.0762 8.61566 17.4553C8.68298 17.6823 8.7421 17.8815 8.78363 18.0407C10.0081 22.3999 12.3102 26.4162 15.9346 29.3061C16.9632 30.1387 18.0408 30.8244 19.2163 31.4121C20.1838 31.8959 21.7041 30.7213 22.5718 30.0508C22.6705 29.9746 22.7607 29.9048 22.8408 29.8448C24.8979 28.3754 26.5632 26.5632 27.8857 24.4571C29.0122 22.6448 29.8938 20.6856 30.5306 18.6774C30.7755 17.8448 31.0204 17.0122 31.1673 16.1795C31.1928 16.0604 31.2243 15.9279 31.2578 15.7869L31.2578 15.7867C31.4171 15.1155 31.623 14.2481 31.4612 13.6815C31.3632 13.3386 31.0204 13.0448 30.6775 12.9468C30.8778 13.0014 30.6788 12.941 30.4428 12.8712ZM30.6333 12.9337C30.1454 12.7886 29.9789 12.738 29.9792 12.7369C29.9794 12.736 30.0754 12.7636 30.2 12.7999C30.2754 12.8219 30.3613 12.8471 30.4428 12.8712C30.5058 12.8934 30.5693 12.9143 30.6333 12.9337ZM30.6333 12.9337Q30.6554 12.9403 30.6775 12.9468L30.6333 12.9337ZM20.3918 28.7183C25.0939 25.8285 27.8857 20.9306 28.9633 15.6898L29.0612 14.8571L29.0612 14.8081L28.5714 14.5142C27.102 13.6816 25.9265 12.2612 25.2408 10.7918L25.0449 10.302L14.4653 10.302L14.1714 10.9877C13.4857 12.3591 12.3592 13.6816 11.1347 14.4163L10.449 14.8571L10.5469 15.6408C11.3306 19.7061 13.4857 25.2407 19.1184 28.6693L19.7551 29.0612L20.3918 28.7183ZM15.8367 13.0939C16.2776 12.702 18.4816 12.702 19.3633 12.702C19.7551 12.702 19.7551 13.0449 19.8041 13.4857L19.8041 25.3878C19.8041 26.5143 17.9918 24.7021 17.7959 24.5061C17.1102 23.9184 16.5224 23.1837 16.0327 22.449C15.0041 20.9796 14.2694 19.4122 13.7306 17.747C13.6955 17.6357 13.659 17.5273 13.6233 17.4214C13.3606 16.6414 13.1444 15.9997 13.8775 15.3959C14.6612 14.7592 15.1021 13.7796 15.8367 13.0939Z" fill="rgb(255,255,255)" fill-rule="evenodd"></path>
  </symbol>
  <symbol xmlns="http://www.w3.org/2000/svg" xmlns:xlink="http://www.w3.org/1999/xlink" fill="none" customFrame="#000000" viewBox="0 0 40 40" id="new_custom95">
    <rect id="new_custom95" width="40.000000" height="40.000000" x="0.000000" y="0.000000" fill="rgb(255,255,255)" fill-opacity="0"></rect>
    <rect id="Icon Background" width="40.000000" height="40.000000" x="0.000000" y="0.000000" rx="20.000000" fill="currentColor"></rect>
    <path id="Shape" d="M21.2 12.1L21.2 10.4L21.6 10.4C22.25 10.4 22.8 9.90002 22.8 9.19995C22.8 8.55005 22.3 8 21.6 8L18.4 8C17.75 8 17.2 8.5 17.2 9.19995C17.2 9.84998 17.7 10.4 18.4 10.4L18.8 10.4L18.8 12.1C13.85 12.7 10 16.9 10 22C10 27.5 14.5 32 20 32C25.5 32 30 27.5 30 22C30 16.9 26.15 12.7 21.2 12.1ZM12.4 22C12.4 26.2 15.8 29.6 20 29.6C24.2 29.6 27.6 26.2 27.6 22C27.6 17.8 24.2 14.4 20 14.4C15.8 14.4 12.4 17.8 12.4 22ZM20.8 19.75L22.65 17.9C23.05 17.5 23.7 17.5 24.1 17.9C24.5 18.2999 24.5 18.95 24.1 19.35L22.25 21.2C22.35 21.45 22.4 21.7 22.4 22C22.4 23.2999 21.3 24.4 20 24.4C18.7 24.4 17.6 23.2999 17.6 22C17.6 20.7 18.7 19.6 20 19.6C20.3 19.6 20.55 19.65 20.8 19.75Z" fill="rgb(255,255,255)" fill-rule="evenodd"></path>
  </symbol>
  <symbol xmlns="http://www.w3.org/2000/svg" xmlns:xlink="http://www.w3.org/1999/xlink" fill="none" customFrame="#000000" viewBox="0 0 40 40" id="new_custom100">
    <rect id="new_custom100" width="40.000000" height="40.000000" x="0.000000" y="0.000000" fill="rgb(255,255,255)" fill-opacity="0"></rect>
    <rect id="Icon Background" width="40.000000" height="40.000000" x="0.000000" y="0.000000" rx="20.000000" fill="currentColor"></rect>
    <path id="Shape" d="M29.6 8.75006L10.4 8.75006C9.10001 8.75006 8 9.85004 8 11.2001L8 22.6C8 23.9501 9.10001 25.05 10.4 25.05L29.6 25.05C30.9 25.05 32 23.9501 32 22.6L32 11.2001C32 9.85004 30.9 8.75006 29.6 8.75006ZM29.6 21.7999C29.6 22.2499 29.25 22.5999 28.8 22.5999L11.2 22.5999C10.75 22.5999 10.4 22.2499 10.4 21.7999L10.4 11.9999C10.4 11.5499 10.75 11.2 11.2 11.2L28.8 11.2C29.25 11.2 29.6 11.5499 29.6 11.9999L29.6 21.7999ZM24.75 27.5L15.25 27.5C14.95 27.5 14.8 27.75 14.85 28.05C15.25 29.6 17.4 30.8 19.95 30.8C22.55 30.8 24.7 29.6 25.05 28.05C25.2 27.75 25 27.5 24.75 27.5Z" fill="rgb(255,255,255)" fill-rule="evenodd"></path>
  </symbol>
  <symbol xmlns="http://www.w3.org/2000/svg" xmlns:xlink="http://www.w3.org/1999/xlink" fill="none" customFrame="#000000" viewBox="0 0 40 40" id="new_event">
    <rect id="new_event" width="40.000000" height="40.000000" x="0.000000" y="0.000000" fill="rgb(255,255,255)" fill-opacity="0"></rect>
    <rect id="Icon Background" width="40.000000" height="40.000000" x="0.000000" y="0.000000" rx="20.000000" fill="currentColor"></rect>
    <path id="Shape" d="M27 10.5L29 10.5C30.1 10.5 31 11.4 31 12.5L31 13.75C31 14.15 30.65 14.5 30.25 14.5L9.75 14.5C9.35001 14.5 9 14.15 9 13.75L9 12.5C9 11.4 9.89999 10.5 11 10.5L13.5 10.5L13.5 9.5C13.5 8.65002 14.2 8 15 8C15.85 8 16.5 8.69995 16.5 9.5L16.5 10.5L23.5 10.5L23.5 9.5C23.5 8.65002 24.2 8 25 8C25.85 8 26.5 8.69995 26.5 9.5L26.5 10.5L27 10.5ZM30.25 17L9.75 17C9.35001 17 9 17.35 9 17.75L9 30C9 31.1 9.89999 32 11 32L29 32C30.1 32 31 31.1 31 30L31 17.75C31 17.35 30.65 17 30.25 17ZM16 23.5C16.3 23.5 16.5 23.3 16.5 23L16.5 21C16.5 20.7 16.3 20.5 16 20.5L14 20.5C13.7 20.5 13.5 20.7 13.5 21L13.5 23C13.5 23.3 13.7 23.5 14 23.5L16 23.5ZM21 23.5C21.3 23.5 21.5 23.3 21.5 23L21.5 21C21.5 20.7 21.3 20.5 21 20.5L19 20.5C18.7 20.5 18.5 20.7 18.5 21L18.5 23C18.5 23.3 18.7 23.5 19 23.5L21 23.5ZM26 23.5C26.3 23.5 26.5 23.3 26.5 23L26.5 21C26.5 20.7 26.3 20.5 26 20.5L24 20.5C23.7 20.5 23.5 20.7 23.5 21L23.5 23C23.5 23.3 23.7 23.5 24 23.5L26 23.5ZM16.5 28C16.5 28.3 16.3 28.5 16 28.5L14 28.5C13.7 28.5 13.5 28.3 13.5 28L13.5 26C13.5 25.7 13.7 25.5 14 25.5L16 25.5C16.3 25.5 16.5 25.7 16.5 26L16.5 28ZM21.5 28C21.5 28.3 21.3 28.5 21 28.5L19 28.5C18.7 28.5 18.5 28.3 18.5 28L18.5 26C18.5 25.7 18.7 25.5 19 25.5L21 25.5C21.3 25.5 21.5 25.7 21.5 26L21.5 28ZM26.5 28C26.5 28.3 26.3 28.5 26 28.5L24 28.5C23.7 28.5 23.5 28.3 23.5 28L23.5 26C23.5 25.7 23.7 25.5 24 25.5L26 25.5C26.3 25.5 26.5 25.7 26.5 26L26.5 28Z" fill="rgb(255,255,255)" fill-rule="evenodd"></path>
  </symbol>
  <symbol xmlns="http://www.w3.org/2000/svg" xmlns:xlink="http://www.w3.org/1999/xlink" fill="none" customFrame="#000000" viewBox="0 0 40 40" id="new_group">
    <defs>
      <filter id="pixso_custom_mask_type_alpha">
        <feColorMatrix type="matrix" values="0 0 0 0 1 0 0 0 0 1 0 0 0 0 1 0 0 0 1 0 "></feColorMatrix>
      </filter>
    </defs>
    <mask id="mask_30" width="40.000000" height="40.000000" x="0.000000" y="0.000000" maskUnits="userSpaceOnUse">
      <g filter="url(#pixso_custom_mask_type_alpha)">
        <rect id="Icon Background" width="40.000000" height="40.000000" x="0.000000" y="0.000000" rx="20.000000" fill="currentColor"></rect>
      </g>
    </mask>
    <rect id="new_group" width="40.000000" height="40.000000" x="0.000000" y="0.000000" fill="rgb(255,255,255)" fill-opacity="0"></rect>
    <rect id="Icon Background" width="40.000000" height="40.000000" x="0.000000" y="0.000000" rx="20.000000" fill="currentColor"></rect>
    <g mask="url(#mask_30)">
      <g id="new_group">
        <path id="Path" d="M15.6075 20.9057C14.9736 19.9547 14.6566 18.8679 14.6566 17.6453C14.6566 15.5623 15.517 13.8415 16.8755 12.8C16.4226 11.9849 15.517 11.3962 14.3396 11.3962C12.3472 11.3962 11.2151 13.0264 11.2151 14.883C11.2151 15.8793 11.5321 16.7396 12.2113 17.3283C12.5736 17.6906 12.8906 18.1434 12.8906 18.5962C12.8906 19.0491 12.7094 19.5019 11.5773 20C9.94715 20.7245 8.45282 21.7208 8.40753 23.2151C8.45282 24.2113 9.08678 24.9811 10.0377 24.9811L11.5321 24.9811C11.7585 24.9811 11.9849 24.8453 12.1207 24.6189C12.8453 23.3057 14.2038 22.4906 15.3358 21.9019C15.7434 21.7208 15.8339 21.2227 15.6075 20.9057Z" fill="rgb(255,255,255)" fill-rule="evenodd"></path>
        <path id="Path" d="M28.8302 20C27.6981 19.5019 27.517 19.0944 27.517 18.5962C27.517 18.0981 27.834 17.6453 28.1963 17.3283C28.8755 16.6944 29.1925 15.8793 29.1925 14.883C29.1925 13.0264 28.1057 11.3962 26.0679 11.3962C24.8906 11.3962 23.9849 11.9849 23.4868 12.8C24.8453 13.8415 25.7057 15.5623 25.7057 17.6453C25.7057 18.8679 25.3887 19.9547 24.7547 20.9057C24.5283 21.2679 24.6642 21.7208 25.0264 21.9019C26.1585 22.4453 27.517 23.3057 28.2415 24.6189C28.3774 24.8453 28.6038 24.9811 28.8302 24.9811L30.3246 24.9811C31.2755 24.9811 31.9095 24.2113 31.9095 23.2151C31.9547 21.7208 30.4604 20.7245 28.8302 20Z" fill="rgb(255,255,255)" fill-rule="evenodd"></path>
        <path id="Path" d="M23.2151 23.3056C21.9925 22.7622 21.7661 22.2641 21.7661 21.766C21.7661 21.2226 22.1283 20.7245 22.5359 20.3622C23.2604 19.683 23.6679 18.7321 23.6679 17.6453C23.6679 15.6075 22.4453 13.8415 20.2264 13.8415C18.0076 13.8415 16.7849 15.6075 16.7849 17.6453C16.7849 18.7321 17.1925 19.683 17.917 20.3622C18.3246 20.7698 18.6868 21.2679 18.6868 21.766C18.6868 22.3094 18.5057 22.7622 17.2378 23.3056C15.4264 24.0755 13.7057 24.9358 13.6604 26.566C13.6604 27.6528 14.4755 28.5585 15.517 28.5585L20.2264 28.5585L24.9359 28.5585C25.9774 28.5585 26.7925 27.6528 26.7925 26.566C26.7472 24.9358 25.0264 24.1207 23.2151 23.3056Z" fill="rgb(255,255,255)" fill-rule="evenodd"></path>
      </g>
    </g>
  </symbol>
  <symbol xmlns="http://www.w3.org/2000/svg" xmlns:xlink="http://www.w3.org/1999/xlink" fill="none" customFrame="#000000" viewBox="0 0 40 40" id="new_person_account">
    <rect id="new_person_account" width="40.000000" height="40.000000" x="0.000000" y="0.000000" fill="rgb(255,255,255)" fill-opacity="0"></rect>
    <rect id="Icon Background" width="40.000000" height="40.000000" x="0.000000" y="0.000000" rx="20.000000" fill="currentColor"></rect>
    <path id="Shape" d="M18.7 20.55C18.6968 20.5458 18.6934 20.5412 18.6896 20.5363C18.5219 20.314 17.7977 19.3547 17.7977 16.8901C17.7977 16.8116 17.7985 16.7316 17.8 16.65C17.85 14 19 13.35 19 13.35L19 10.75C19 10.3 18.55 10 18.25 10L8.75 10C8.40002 10 8 10.35 8 10.8L8 28.25L13.4 28.25C13.55 23.8 18.65 22 18.65 22C18.9393 21.8457 19.0352 21.6245 19.0352 21.3994C19.0352 21.041 18.7921 20.6729 18.7 20.55ZM11.5001 14.95C11.9501 14.95 12.3001 14.6 12.3001 14.15L12.3001 13.35C12.3001 12.9 11.9501 12.55 11.5001 12.55L10.7001 12.55C10.2501 12.55 9.90003 12.9 9.90003 13.35L9.90003 14.15C9.90003 14.6 10.2501 14.95 10.7001 14.95L11.5001 14.95ZM16.0001 14.95C16.4501 14.95 16.8001 14.6 16.8001 14.15L16.8001 13.35C16.8001 12.9 16.4501 12.55 16.0001 12.55L15.2001 12.55C14.7501 12.55 14.4 12.9 14.4 13.35L14.4 14.15C14.4 14.6 14.7501 14.95 15.2001 14.95L16.0001 14.95ZM27.8501 23.6C26.4 23 26.15 22.45 26.15 21.85C26.15 21.25 26.55 20.7 27.05 20.25C27.9 19.5 28.3501 18.4 28.3501 17.15C28.3501 14.85 26.8501 12.8 24.25 12.8C21.65 12.8 20.15 14.8 20.15 17.15C20.15 18.45 20.65 19.45 21.45 20.25C21.95 20.7 22.3501 21.25 22.3501 21.85C22.3501 22.45 22.1001 23 20.65 23.6C18.5 24.5 16.5 25.6 16.45 27.5C16.45 28.75 17.4 30 18.6 30L29.8 30C31.05 30 31.95 28.75 31.95 27.5C32.05 25.65 30 24.5 27.8501 23.6ZM11.5001 18.9C11.9501 18.9 12.3001 18.5499 12.3001 18.1L12.3001 17.2999C12.3001 16.85 11.9501 16.4999 11.5001 16.4999L10.7001 16.4999C10.2501 16.4999 9.90003 16.85 9.90003 17.2999L9.90003 18.1C9.90003 18.5499 10.2501 18.9 10.7001 18.9L11.5001 18.9ZM16.0001 18.9C16.4501 18.9 16.8001 18.5499 16.8001 18.1L16.8001 17.2999C16.8001 16.85 16.4501 16.4999 16.0001 16.4999L15.2001 16.4999C14.7501 16.4999 14.4 16.85 14.4 17.2999L14.4 18.1C14.4 18.5499 14.7501 18.9 15.2001 18.9L16.0001 18.9ZM11.5001 22.9C11.9501 22.9 12.3001 22.5499 12.3001 22.1L12.3001 21.2999C12.3001 20.85 11.9501 20.4999 11.5001 20.4999L10.7001 20.4999C10.2501 20.4999 9.90003 20.85 9.90003 21.2999L9.90003 22.1C9.90003 22.5499 10.2501 22.9 10.7001 22.9L11.5001 22.9ZM16.0001 22.9C16.4501 22.9 16.8001 22.5499 16.8001 22.1L16.8001 21.2999C16.8001 20.85 16.4501 20.4999 16.0001 20.4999L15.2001 20.4999C14.7501 20.4999 14.4 20.85 14.4 21.2999L14.4 22.1C14.4 22.5499 14.7501 22.9 15.2001 22.9L16.0001 22.9ZM11.5001 26.8499C11.9501 26.8499 12.3001 26.4999 12.3001 26.0499L12.3001 25.2499C12.3001 24.7999 11.9501 24.4499 11.5001 24.4499L10.7001 24.4499C10.2501 24.4499 9.90003 24.7999 9.90003 25.2499L9.90003 26.0499C9.90003 26.4999 10.2501 26.8499 10.7001 26.8499L11.5001 26.8499Z" fill="rgb(255,255,255)" fill-rule="evenodd"></path>
  </symbol>
  <symbol xmlns="http://www.w3.org/2000/svg" xmlns:xlink="http://www.w3.org/1999/xlink" fill="none" customFrame="#000000" viewBox="0 0 40 40" id="new_task">
    <rect id="new_task" width="40.000000" height="40.000000" x="0.000000" y="0.000000" fill="rgb(255,255,255)" fill-opacity="0"></rect>
    <rect id="Icon Background" width="40.000000" height="40.000000" x="0.000000" y="0.000000" rx="20.000000" fill="currentColor"></rect>
    <path id="Shape" d="M19.2653 10.9387L18.4327 10.1061C18.1877 9.86121 17.8449 9.86121 17.6 10.1061L12.4081 15.249L10.3021 13.1918C10.0571 12.9469 9.71429 12.9469 9.46936 13.1918L8.63672 14.0245C8.39185 14.2693 8.39185 14.6122 8.63672 14.8571L11.5266 17.7469C11.7714 17.9918 12.0653 18.0898 12.3592 18.0898C12.6531 18.0898 12.947 17.9918 13.1918 17.7469L19.2653 11.7714C19.4612 11.5755 19.4612 11.1837 19.2653 10.9387ZM20.9796 16.5225L31.2163 16.5225C31.6572 16.5225 32 16.1796 32 15.7388L32 14.1714C32 13.7306 31.6572 13.3878 31.2163 13.3878L20.9796 13.3878C20.5388 13.3878 20.1959 13.7306 20.1959 14.1714L20.1959 15.7388C20.1959 16.1796 20.5388 16.5225 20.9796 16.5225ZM12.3102 23.5266L13.8776 23.5266C14.3184 23.5266 14.7102 23.1837 14.6613 22.7429L14.6613 21.1755C14.6613 20.7347 14.3184 20.3918 13.8776 20.3918L12.3102 20.3918C11.8694 20.3918 11.5266 20.7347 11.5266 21.1755L11.5266 22.7429C11.5266 23.1837 11.8694 23.5266 12.3102 23.5266ZM31.2163 23.5266L18.6286 23.5266C18.1877 23.5266 17.8449 23.1837 17.8449 22.7429L17.8449 21.1755C17.8449 20.7347 18.1877 20.3918 18.6286 20.3918L31.2163 20.3918C31.6572 20.3918 32 20.7347 32 21.1755L32 22.7429C32 23.1837 31.6572 23.5266 31.2163 23.5266ZM13.8776 30.5306L12.3102 30.5306C11.8694 30.5306 11.5266 30.1877 11.5266 29.7469L11.5266 28.1796C11.5266 27.7388 11.8694 27.3959 12.3102 27.3959L13.8776 27.3959C14.3184 27.3959 14.6613 27.7388 14.6613 28.1796L14.6613 29.7469C14.7102 30.1877 14.3184 30.5306 13.8776 30.5306ZM18.6286 30.5306L31.2163 30.5306C31.6572 30.5306 32 30.1877 32 29.7469L32 28.1796C32 27.7388 31.6572 27.3959 31.2163 27.3959L18.6286 27.3959C18.1877 27.3959 17.8449 27.7388 17.8449 28.1796L17.8449 29.7469C17.8449 30.1877 18.1877 30.5306 18.6286 30.5306Z" fill="rgb(255,255,255)" fill-rule="evenodd"></path>
  </symbol>
  <symbol xmlns="http://www.w3.org/2000/svg" xmlns:xlink="http://www.w3.org/1999/xlink" fill="none" customFrame="#000000" viewBox="0 0 40 40" id="priority">
    <rect id="priority" width="40.000000" height="40.000000" x="0.000000" y="0.000000" fill="rgb(255,255,255)" fill-opacity="0"></rect>
    <rect id="Icon Background" width="40.000000" height="40.000000" x="0.000000" y="0.000000" rx="20.000000" fill="currentColor"></rect>
    <path id="Shape" d="M10.75 8C11.15 8 11.5 8.34998 11.5 8.75L11.5 31.25C11.5 31.65 11.15 32 10.75 32L9.25 32C8.85001 32 8.5 31.65 8.5 31.25L8.5 8.75C8.5 8.34998 8.85001 8 9.25 8L10.75 8ZM23.0189 10.659C24.99 11.8592 26.7669 12.9411 30.75 10.85C31.1 10.65 31.5 10.9 31.5 11.25L31.5 22.85C31.5 23.1 31.35 23.35 31.1 23.5C26.8431 25.8961 25.0163 24.7835 22.9762 23.541C21.0146 22.3462 18.8558 21.0314 14.15 22.6C13.85 22.75 13.5 22.5 13.5 22.15L13.5 10.5C13.5 10.2 13.7 9.90002 14 9.79999C18.8454 8.11792 21.0309 9.44865 23.0189 10.659Z" fill="rgb(255,255,255)" fill-rule="evenodd"></path>
  </symbol>
  <symbol xmlns="http://www.w3.org/2000/svg" xmlns:xlink="http://www.w3.org/1999/xlink" fill="none" customFrame="#000000" viewBox="0 0 40 40" id="record">
    <rect id="record" width="40.000000" height="40.000000" x="0.000000" y="0.000000" fill="rgb(255,255,255)" fill-opacity="0"></rect>
    <rect id="Icon Background" width="40.000000" height="40.000000" x="0.000000" y="0.000000" rx="20.000000" fill="currentColor"></rect>
    <path id="Shape" d="M15.7 12.8L24.35 12.8C24.8 12.8 25.15 12.45 25.15 12L25.15 10.4C25.15 9.09998 24.1 8 22.8 8L17.3 8C16 8 14.95 9.09998 14.95 10.4L14.95 12C14.9 12.45 15.25 12.8 15.7 12.8ZM28.65 10L27.85 10C27.6 10 27.45 10.15 27.45 10.4L27.45 12C27.45 13.75 26.05 15.2 24.3 15.2L15.7 15.2C13.95 15.2 12.55 13.75 12.55 12L12.55 10.4C12.55 10.15 12.4 10 12.15 10L11.35 10C10.05 10 9 11.1 9 12.4L9 29.6C9 30.9 10.05 32 11.35 32L28.65 32C29.95 32 31 30.9 31 29.6L31 12.4C31 11.1 29.95 10 28.65 10ZM14.9 20C15.35 20 15.7 19.65 15.7 19.2L15.7 18.4C15.7 17.95 15.35 17.6 14.9 17.6L14.1 17.6C13.65 17.6 13.3 17.95 13.3 18.4L13.3 19.2C13.3 19.65 13.65 20 14.1 20L14.9 20ZM26.7 19.2C26.7 19.65 26.35 20 25.9 20L18.05 20C17.6 20 17.25 19.65 17.25 19.2L17.25 18.4C17.25 17.95 17.6 17.6 18.05 17.6L25.9 17.6C26.35 17.6 26.7 17.95 26.7 18.4L26.7 19.2ZM15.7 23.2C15.7 23.65 15.35 24 14.9 24L14.1 24C13.65 24 13.3 23.65 13.3 23.2L13.3 22.4C13.3 21.95 13.65 21.6 14.1 21.6L14.9 21.6C15.35 21.6 15.7 21.95 15.7 22.4L15.7 23.2ZM25.9 24C26.35 24 26.7 23.65 26.7 23.2L26.7 22.4C26.7 21.95 26.35 21.6 25.9 21.6L18.05 21.6C17.6 21.6 17.25 21.95 17.25 22.4L17.25 23.2C17.25 23.65 17.6 24 18.05 24L25.9 24ZM14.9 28C15.35 28 15.7 27.65 15.7 27.2L15.7 26.4C15.7 25.95 15.35 25.6 14.9 25.6L14.1 25.6C13.65 25.6 13.3 25.95 13.3 26.4L13.3 27.2C13.3 27.65 13.65 28 14.1 28L14.9 28ZM26.7 27.2C26.7 27.65 26.35 28 25.9 28L18.05 28C17.6 28 17.25 27.65 17.25 27.2L17.25 26.4C17.25 25.95 17.6 25.6 18.05 25.6L25.9 25.6C26.35 25.6 26.7 25.95 26.7 26.4L26.7 27.2Z" fill="rgb(255,255,255)" fill-rule="evenodd"></path>
  </symbol>
  <symbol xmlns="http://www.w3.org/2000/svg" xmlns:xlink="http://www.w3.org/1999/xlink" fill="none" customFrame="#000000" viewBox="0 0 40 40" id="share_poll">
    <rect id="share_poll" width="40.000000" height="40.000000" x="0.000000" y="0.000000" fill="rgb(255,255,255)" fill-opacity="0"></rect>
    <rect id="Icon Background" width="40.000000" height="40.000000" x="0.000000" y="0.000000" rx="20.000000" fill="currentColor"></rect>
    <path id="Shape" d="M30.4 8L9.60001 8C8.7 8 8 8.70001 8 9.59998L8 12.8C8 13.7 8.7 14.4 9.60001 14.4L30.4 14.4C31.3 14.4 32 13.7 32 12.8L32 9.59998C32 8.70001 31.3 8 30.4 8ZM20.4 12.7999L20.4 9.59991L30.4 9.59991L30.4 12.7999L20.4 12.7999ZM9.60001 16.8L30.4 16.8C31.3 16.8 32 17.5 32 18.4L32 21.6C32 22.5 31.3 23.2 30.4 23.2L9.60001 23.2C8.7 23.2 8 22.5 8 21.6L8 18.4C8 17.5 8.7 16.8 9.60001 16.8ZM16.8 18.4L16.8 21.6L30.4 21.6L30.4 18.4L16.8 18.4ZM30.4 25.6L9.60001 25.6C8.7 25.6 8 26.3 8 27.2L8 30.4C8 31.3 8.7 32 9.60001 32L30.4 32C31.3 32 32 31.3 32 30.4L32 27.2C32 26.3 31.3 25.6 30.4 25.6ZM24 30.4L24 27.2L30.4 27.2L30.4 30.4L24 30.4Z" fill="rgb(255,255,255)" fill-rule="evenodd"></path>
  </symbol>
  <symbol xmlns="http://www.w3.org/2000/svg" xmlns:xlink="http://www.w3.org/1999/xlink" fill="none" customFrame="#000000" viewBox="0 0 40 40" id="share_post">
    <rect id="share_post" width="40.000000" height="40.000000" x="0.000000" y="0.000000" fill="rgb(255,255,255)" fill-opacity="0"></rect>
    <rect id="Icon Background" width="40.000000" height="40.000000" x="0.000000" y="0.000000" rx="20.000000" fill="currentColor"></rect>
    <path id="Shape" d="M19.7551 8.97961C13.2408 8.97961 8 13.7796 8 19.7551C8 21.6653 8.53877 23.4286 9.46939 25.0449C9.56734 25.2408 9.61633 25.4857 9.56734 25.6816L8.4898 29.0612C8.29388 29.698 8.88163 30.2368 9.51836 30.0408L12.9469 28.8654C13.1918 28.7674 13.4367 28.8163 13.6327 28.9633C15.4449 29.9919 17.551 30.5796 19.8041 30.5796C26.3184 30.5796 31.5592 25.7796 31.5592 19.8041C31.4122 13.7796 26.1714 8.97961 19.7551 8.97961Z" fill="rgb(255,255,255)" fill-rule="evenodd"></path>
  </symbol>
  <symbol xmlns="http://www.w3.org/2000/svg" xmlns:xlink="http://www.w3.org/1999/xlink" fill="none" clip-path="url(#clipPath_8)" customFrame="url(#clipPath_8)" viewBox="0 0 40 40" id="telegram">
    <defs>
      <clipPath id="clipPath_8">
        <rect width="40.000000" height="40.000000" x="0.000000" y="0.000000" rx="20.000000" fill="rgb(255,255,255)"></rect>
      </clipPath>
    </defs>
    <rect id="telegram" width="40.000000" height="40.000000" x="0.000000" y="0.000000" rx="20.000000" fill="currentColor"></rect>
    <path id="Shape" d="M12.4865 20.0885C11.495 19.5335 10.3535 18.8945 9.07703 18.179C8.11249 17.639 7.8515 16.4645 8.13202 15.764C8.414 15.065 9.07098 14.5295 9.89001 14.33C15.0395 13.082 24.4505 10.799 29.477 9.58105C30.164 9.41455 30.974 9.49255 31.478 9.93201C32.138 10.5081 32.012 11.3975 31.8215 11.9976C30.425 16.3836 27.9035 24.3095 26.4725 28.8051C26.2445 29.5205 25.6745 30.1656 24.887 30.4115C23.702 30.7701 22.7795 30.0321 22.2995 29.4215C21.362 28.2276 20.4965 27.122 19.748 26.1621L15.0725 29.6916C14.5835 30.0606 13.928 30.1206 13.3805 29.8476C12.8315 29.5746 12.4865 29.015 12.4865 28.403L12.4865 20.0885ZM18.116 21.515C17.8025 21.7865 17.552 22.1225 17.3795 22.4975C16.958 23.4185 16.112 25.2636 15.488 26.6211C15.4175 26.7741 15.2495 26.8565 15.086 26.8161C14.921 26.7771 14.8085 26.627 14.8175 26.4575C14.903 24.6635 15.0305 22.0086 15.092 20.7426C15.113 20.294 15.368 19.8905 15.764 19.679C17.435 18.7835 22.0145 16.3341 24.911 14.7846C25.055 14.708 25.232 14.7515 25.325 14.885C25.4165 15.02 25.394 15.2015 25.271 15.3081C22.9415 17.3286 19.3895 20.411 18.116 21.515Z" fill="rgb(255,255,255)" fill-rule="evenodd"></path>
  </symbol>
  <symbol xmlns="http://www.w3.org/2000/svg" xmlns:xlink="http://www.w3.org/1999/xlink" fill="none" customFrame="#000000" viewBox="0 0 40 40" id="user">
    <rect id="user" width="40.000000" height="40.000000" x="0.000000" y="0.000000" fill="rgb(255,255,255)" fill-opacity="0"></rect>
    <rect id="Icon Background" width="40.000000" height="40.000000" x="0.000000" y="0.000000" rx="20.000000" fill="currentColor"></rect>
    <path id="Shape" d="M25.95 14.6C25.95 10.95 23.3 8 20 8C16.7 8 14.05 10.95 14.05 14.6C14.05 18.25 16.7 21.2 20 21.2C23.3 21.2 25.95 18.25 25.95 14.6ZM32 28.5L32 29.6C32 30.9 30.9 32 29.6 32L10.4 32C9.1 32 8 30.9 8 29.6L8 28.5C8 25.6 11.4 23.8 14.6 22.4L14.9 22.25C15.15 22.15 15.4 22.15 15.65 22.3C16.95 23.15 18.4 23.6 19.95 23.6C21.5 23.6 23 23.1 24.25 22.3C24.5 22.15 24.75 22.15 25 22.25L25.3 22.4C28.6 23.8 32 25.55 32 28.5Z" fill="rgb(255,255,255)" fill-rule="evenodd"></path>
  </symbol>
  <symbol xmlns="http://www.w3.org/2000/svg" xmlns:xlink="http://www.w3.org/1999/xlink" fill="none" customFrame="#000000" viewBox="0 0 24 24" id="arrow-right">
    <rect id="arrow-right" width="24.000000" height="24.000000" x="0.000000" y="0.000000"></rect>
    <path id="shape" d="M21.2484 11.1516L15.2484 5.15158C14.7792 4.68238 14.0208 4.68238 13.5516 5.15158C13.0824 5.62078 13.0824 6.37918 13.5516 6.84838L17.5032 10.8L3.59999 10.8C2.93639 10.8 2.39999 11.3376 2.39999 12C2.39999 12.6624 2.93639 13.2 3.59999 13.2L17.5032 13.2L13.5516 17.1516C13.0824 17.6208 13.0824 18.3792 13.5516 18.8484C13.7856 19.0824 14.0928 19.2 14.4 19.2C14.7072 19.2 15.0144 19.0824 15.2484 18.8484L21.2484 12.8484C21.7176 12.3792 21.7176 11.6208 21.2484 11.1516Z" fill="currentColor" fill-rule="evenodd"></path>
  </symbol>
  <symbol xmlns="http://www.w3.org/2000/svg" xmlns:xlink="http://www.w3.org/1999/xlink" fill="none" customFrame="#000000" viewBox="0 0 24 24" id="chevron-down">
    <rect id="chevron-down" width="24.000000" height="24.000000" x="0.000000" y="0.000000" fill="rgb(255,255,255)" fill-opacity="0"></rect>
    <path id="shape" d="M13.008 15.8389L19.083 9.67371C20.2729 8.40857 18.6554 6.69023 17.4887 7.92705L11.9994 13.5116L6.44956 7.89401C5.36656 6.74216 3.77691 8.51714 4.86456 9.67371L10.9535 15.8531C11.6879 16.6509 12.1341 16.7831 13.008 15.8389Z" fill="currentColor" fill-rule="evenodd"></path>
  </symbol>
  <symbol xmlns="http://www.w3.org/2000/svg" xmlns:xlink="http://www.w3.org/1999/xlink" fill="none" customFrame="#000000" viewBox="0 0 24 24" id="chevron-left">
    <rect id="chevron-left" width="24.000000" height="24.000000" x="0.000000" y="0.000000" fill="rgb(255,255,255)" fill-opacity="0"></rect>
    <path id="shape" d="M4.84698 12.7793L14.4127 22.1475C15.5272 23.2183 17.2582 21.6098 16.1248 20.5158L7.45064 12.0005L16.1295 3.47599C17.263 2.40058 15.5367 0.782813 14.4222 1.84896L4.84698 11.2218C4.40593 11.6529 4.36324 12.3157 4.84698 12.7793Z" fill="currentColor" fill-rule="evenodd"></path>
  </symbol>
  <symbol xmlns="http://www.w3.org/2000/svg" xmlns:xlink="http://www.w3.org/1999/xlink" fill="none" customFrame="#000000" viewBox="0 0 24 24" id="chevron-right">
    <rect id="chevron-right" width="24.000000" height="24.000000" x="0.000000" y="0.000000" fill="rgb(255,255,255)" fill-opacity="0"></rect>
    <path id="shape" d="M19.153 11.2208L9.57829 1.84892C8.4591 0.782887 6.73764 2.40048 7.87105 3.47579L16.5495 11.9995L7.8758 20.5185C6.73764 21.6077 8.46859 23.216 9.58777 22.15L19.153 12.7828C19.6368 12.3146 19.5941 11.6518 19.153 11.2208Z" fill="currentColor" fill-rule="evenodd"></path>
  </symbol>
  <symbol xmlns="http://www.w3.org/2000/svg" xmlns:xlink="http://www.w3.org/1999/xlink" fill="none" viewBox="0 0 24 24" id="git-merge-fill">
    <rect id="git-merge-fill" width="24.000000" height="24.000000" x="0.000000" y="0.000000" fill="rgb(255,255,255)" fill-opacity="0"></rect>
    <path id="shape" d="M7.10501 8.79007C7.27847 9.42491 7.65581 9.98512 8.17892 10.3845C8.70202 10.7838 9.3419 11.0001 10 11.0001L14 11.0001C15.178 11.0002 16.3182 11.4161 17.2196 12.1746C18.1209 12.9331 18.7256 13.9854 18.927 15.1461C19.6057 15.3675 20.1832 15.8237 20.5559 16.4326C20.9286 17.0415 21.0719 17.7634 20.9603 18.4685C20.8486 19.1736 20.4892 19.8158 19.9467 20.2798C19.4041 20.7438 18.7139 20.9992 18 21.0001C17.3015 21.0007 16.6248 20.7575 16.0864 20.3125C15.548 19.8675 15.1818 19.2486 15.0509 18.5625C14.9199 17.8764 15.0325 17.1661 15.3691 16.5542C15.7058 15.9422 16.2454 15.4668 16.895 15.2101C16.7215 14.5753 16.3442 14.0151 15.8211 13.6157C15.298 13.2164 14.6581 13.0001 14 13.0001L10 13.0001C8.9179 13.0017 7.86474 12.6507 7.00001 12.0001L7.00001 15.1701C7.6675 15.406 8.2301 15.8703 8.58837 16.4809C8.94663 17.0915 9.07749 17.8091 8.95782 18.5069C8.83814 19.2047 8.47564 19.8377 7.93438 20.294C7.39312 20.7503 6.70796 21.0006 6.00001 21.0006C5.29205 21.0006 4.60689 20.7503 4.06563 20.294C3.52438 19.8377 3.16187 19.2047 3.0422 18.5069C2.92252 17.8091 3.05338 17.0915 3.41165 16.4809C3.76991 15.8703 4.33251 15.406 5.00001 15.1701L5.00001 8.83007C4.33698 8.59598 3.77721 8.13651 3.41836 7.53184C3.05951 6.92717 2.92438 6.21569 3.03654 5.52156C3.1487 4.82742 3.50104 4.19471 4.03207 3.73383C4.56309 3.27295 5.23909 3.01317 5.9421 2.99981C6.64511 2.98645 7.33049 3.22037 7.87864 3.66074C8.42679 4.10111 8.80291 4.71998 8.94136 5.40935C9.07981 6.09872 8.97181 6.81482 8.63619 7.43269C8.30058 8.05055 7.75866 8.53096 7.10501 8.79007L7.10501 8.79007Z" fill="currentColor" fill-rule="evenodd"></path>
  </symbol>
  <symbol xmlns="http://www.w3.org/2000/svg" xmlns:xlink="http://www.w3.org/1999/xlink" fill="none" viewBox="0 0 24 24" id="phone">
    <rect id="phone" width="24.000000" height="24.000000" x="0.000000" y="0.000000" fill="rgb(255,255,255)" fill-opacity="0"></rect>
    <path id="shape" d="M6.62 10.79C8.06 13.62 10.38 15.93 13.21 17.38L15.41 15.18C15.68 14.91 16.08 14.82 16.43 14.94C17.55 15.31 18.76 15.51 20 15.51C20.55 15.51 21 15.96 21 16.51L21 20C21 20.55 20.55 21 20 21C10.61 21 3 13.39 3 4C3 3.45 3.45 3 4 3L7.5 3C8.05 3 8.5 3.45 8.5 4C8.5 5.25 8.7 6.45 9.07 7.57C9.18 7.92 9.1 8.31 8.82 8.59L6.62 10.79Z" fill="currentColor" fill-rule="evenodd"></path>
  </symbol>
  <symbol xmlns="http://www.w3.org/2000/svg" xmlns:xlink="http://www.w3.org/1999/xlink" fill="none" customFrame="#000000" viewBox="0 0 24 24" id="quote-left">
    <rect id="quote-left" width="24.000000" height="24.000000" x="0.000000" y="0.000000" fill="rgb(255,255,255)" fill-opacity="0"></rect>
    <path id="shape" d="M9.54199 20.0519C10.4897 19.0887 10.9644 17.9714 10.9644 16.6997C10.9644 15.2974 10.5557 14.1919 9.73975 13.3805C8.92383 12.5706 7.76514 12.1642 6.2666 12.1642C5.69385 12.1642 5.22949 12.2737 4.87793 12.4927C4.96436 10.9598 5.57227 9.72235 6.69727 8.77908C7.8208 7.83847 9.02344 7.25803 10.3022 7.03766L10.3022 3.02856C9.24316 3.11691 8.11963 3.39001 6.92578 3.85043C5.73486 4.30957 4.63184 5.01141 3.61816 5.95331C2.60156 6.89658 1.75342 8.1221 1.0708 9.63391C0.386719 11.1458 0.0454102 12.9979 0.0454102 15.1879C0.0454102 16.9411 0.563965 18.4306 1.60107 19.6575C2.63672 20.8843 4.03711 21.4978 5.80225 21.4978C7.34619 21.4978 8.59277 21.0162 9.54199 20.0519ZM22.5762 20.0519C23.5239 19.0887 23.9985 17.9714 23.9985 16.6997C23.9985 15.2974 23.5898 14.1919 22.7754 13.3805C21.958 12.5706 20.7993 12.1642 19.3008 12.1642C18.728 12.1642 18.2637 12.2737 17.9121 12.4927C17.9985 10.9598 18.6064 9.72235 19.7314 8.77908C20.8564 7.83847 22.0591 7.25803 23.3379 7.03766L23.3379 3.02856C22.2788 3.11691 21.1538 3.39001 19.9614 3.85043C18.7705 4.30957 17.6675 5.01141 16.6538 5.95331C15.6372 6.89658 14.7891 8.1221 14.1064 9.63391C13.4224 11.1458 13.0811 12.9979 13.0811 15.1879C13.0811 16.9411 13.5996 18.4306 14.6367 19.6575C15.6724 20.8843 17.0728 21.4978 18.8379 21.4978C20.3818 21.4978 21.627 21.0162 22.5762 20.0519Z" fill="currentColor" fill-rule="evenodd"></path>
  </symbol>
  <symbol xmlns="http://www.w3.org/2000/svg" xmlns:xlink="http://www.w3.org/1999/xlink" fill="none" customFrame="#000000" viewBox="0 0 24 24" id="menu">
    <rect id="menu" width="24.000000" height="24.000000" x="0.000000" y="0.000000" fill="rgb(255,255,255)" fill-opacity="0"></rect>
    <path id="Shape" d="M22.5 4.5C22.5 3.672 21.828 3 21 3L3 3C2.172 3 1.5 3.672 1.5 4.5C1.5 5.328 2.172 6 3 6L21 6C21.828 6 22.5 5.328 22.5 4.5ZM21 10.5C21.828 10.5 22.5 11.172 22.5 12C22.5 12.828 21.828 13.5 21 13.5L3 13.5C2.172 13.5 1.5 12.828 1.5 12C1.5 11.172 2.172 10.5 3 10.5L21 10.5ZM21 18C21.828 18 22.5 18.672 22.5 19.5C22.5 20.328 21.828 21 21 21L3 21C2.172 21 1.5 20.328 1.5 19.5C1.5 18.672 2.172 18 3 18L21 18Z" fill="currentColor" fill-rule="evenodd"></path>
  </symbol>
</svg>
