<svg viewBox="0 0 173.478 140" xmlns="http://www.w3.org/2000/svg" xmlns:xlink="http://www.w3.org/1999/xlink" width="173.477539" height="140.000000" fill="none">
	<defs>
		<linearGradient id="paint_linear_4" x1="19.9534912" x2="84.9276962" y1="26" y2="106.161148" gradientUnits="userSpaceOnUse">
			<stop stop-color="rgb(255,214,167)" offset="0" stop-opacity="1" />
			<stop stop-color="rgb(246,51,154)" offset="0.5" stop-opacity="1" />
			<stop stop-color="rgb(138,1,148)" offset="1" stop-opacity="1" />
		</linearGradient>
	</defs>
	<rect id="homepage_logo-05" width="173.477905" height="140.000000" x="0.000000" y="0.000000" />
	<path id="Vector 219" d="M172.564 82.7101C163.043 73.5064 151.027 67.6421 137.807 65.7501C136.121 65.5089 134.55 66.6589 134.308 68.3011C134.062 69.9471 135.231 71.4832 136.916 71.7254C147.728 73.271 157.705 77.8019 165.869 84.8549C155.826 93.5182 142.932 98.4013 129.384 98.6406C116.504 98.876 104.066 94.8825 93.9723 87.377C124.723 83.5128 148.734 57.8017 148.905 26.8901C148.909 26.0893 148.58 25.3049 148.003 24.7414C147.382 24.1307 146.549 23.7978 145.747 23.8547C132.651 23.9358 120.144 27.9379 109.575 35.4319C108.197 36.4102 107.891 38.3023 108.891 39.6492C109.376 40.3004 110.091 40.7288 110.905 40.8562C111.72 40.9826 112.538 40.7925 113.206 40.3188C121.842 34.194 131.982 30.6405 142.618 29.9979C141.745 43.6755 135.693 56.4587 125.474 66.137C116.628 74.5157 105.472 79.7721 93.4974 81.3381C112.462 57.3907 110.951 22.7326 88.8276 0.877038C88.2639 0.319356 87.4631 0 86.6309 0C85.7986 0 84.9989 0.319356 84.4352 0.876066C75.0175 10.18 69.0159 21.9241 67.0817 34.8394C66.8359 36.4855 68.0058 38.0215 69.699 38.2646C71.3843 38.4971 72.9511 37.3509 73.195 35.7136C74.7776 25.1495 79.4129 15.3979 86.6289 7.41863C95.8363 17.6276 100.747 30.7794 100.486 44.6268C100.26 56.6111 96.1641 67.9981 88.8414 77.3609C84.9209 47.558 58.9328 24.1837 27.7012 23.8692C26.8581 23.8634 26.0732 24.1712 25.4818 24.7423C24.9003 25.3058 24.5666 26.0873 24.5666 26.8882L24.5666 32.492C24.5666 32.5913 24.5715 32.6907 24.5824 32.7978C25.6516 43.0666 29.422 52.9698 35.4849 61.4362C36.4584 62.7976 38.3866 63.1305 39.7875 62.1792C40.4638 61.717 40.915 61.0243 41.0581 60.2311C41.2022 59.4371 41.0206 58.6353 40.5467 57.9744C35.1176 50.3936 31.7283 41.5296 30.744 32.3366L30.744 30.0249C44.5787 30.9251 57.514 36.8492 67.3039 46.8044C75.762 55.405 81.0715 66.2238 82.6611 77.8163C58.3325 59.5036 23.0748 61.3069 0.925153 82.5103C0.332809 83.0795 0.00403734 83.8398 6.02588e-05 84.6493C-0.00488096 85.4511 0.325879 86.2356 0.905388 86.801L4.94731 90.75C5.02233 90.8253 5.10133 90.8948 5.19117 90.9681C16.2388 99.7684 30.199 104.614 44.5007 104.614C44.5016 104.614 44.5047 104.614 44.5056 104.614L44.6202 104.614C55.7972 104.605 66.7599 101.671 76.3217 96.1271C77.0316 95.7161 77.5351 95.0591 77.7385 94.2775C77.9428 93.496 77.8234 92.6836 77.4028 91.9909C76.9832 91.2971 76.3108 90.8051 75.5111 90.6053C74.7094 90.4037 73.8771 90.5224 73.1683 90.9334C64.5652 95.9216 54.6983 98.5643 44.63 98.5759L44.4721 98.5759C31.6512 98.5691 19.1335 94.2399 9.21531 86.3822L7.5409 84.7478C17.9844 75.8066 31.3896 71.0239 45.4919 71.2419C60.0968 71.4716 73.8002 77.0676 84.0778 86.9968C84.0807 86.9997 84.0847 87.0036 84.0877 87.0065L84.0877 87.0075C84.0877 87.0075 84.0886 87.0075 84.0886 87.0085C84.0946 87.0143 84.1005 87.02 84.1064 87.0258C95.9005 98.4196 111.596 104.693 128.311 104.693C128.313 104.693 128.317 104.693 128.319 104.693C145.049 104.692 160.762 98.41 172.562 87.0027C173.144 86.4392 173.478 85.6577 173.478 84.8569C173.48 84.056 173.146 83.2736 172.564 82.7101Z" fill="url(#paint_linear_4)" fill-rule="nonzero" />
	<path id="Vector 222" d="M77.0829 120.002C77.5754 120.002 77.9975 120.165 78.3493 120.49C78.7011 120.815 78.8858 121.224 78.9033 121.717L78.9033 124.012L87.8733 124.012C88.3658 124.012 88.7879 124.179 89.1397 124.513C89.4738 124.865 89.641 125.287 89.641 125.78C89.641 126.272 89.4695 126.69 89.1265 127.033C88.7835 127.376 88.3658 127.547 87.8733 127.547L78.9033 127.547L78.9033 128.075C78.8858 128.796 78.9341 129.46 79.0484 130.067Q79.1081 130.383 79.2267 130.676L79.2267 130.676Q79.4493 131.225 79.8795 131.689C80.3192 132.164 80.8732 132.419 81.5416 132.454L87.9789 132.454C88.4713 132.472 88.8802 132.657 89.2057 133.008C89.5311 133.36 89.6937 133.782 89.6937 134.275C89.6762 134.75 89.5047 135.15 89.1793 135.475C88.8539 135.801 88.4538 135.972 87.9789 135.99L80.6446 135.99C79.4134 135.919 78.3977 135.502 77.5974 134.737C76.7971 133.971 76.2212 133.035 75.8694 131.927C75.5352 130.819 75.3593 129.64 75.3417 128.392L75.3417 127.547L72.3077 127.547C71.8153 127.547 71.4019 127.371 71.0678 127.02C70.716 126.685 70.5401 126.272 70.5401 125.78C70.5401 125.287 70.7116 124.869 71.0546 124.527C71.3975 124.184 71.8153 124.012 72.3077 124.012L75.3417 124.012L75.3417 121.717C75.3593 121.242 75.5352 120.842 75.8694 120.516C76.2035 120.191 76.6081 120.02 77.0829 120.002ZM115.76 120.002C116.234 120.02 116.639 120.191 116.973 120.516C117.307 120.842 117.483 121.242 117.501 121.717L117.501 134.644C117.395 135.699 116.815 136.271 115.76 136.359C115.267 136.359 114.84 136.196 114.48 135.871C114.119 135.546 113.939 135.137 113.939 134.644L113.939 121.717Q113.954 121.312 114.118 120.983Q114.254 120.711 114.493 120.49C114.845 120.165 115.267 120.002 115.76 120.002ZM33.2882 138.285C33.1827 139.34 32.6022 139.912 31.5469 140C31.0545 140 30.6279 139.837 30.2674 139.512C29.9069 139.186 29.7266 138.777 29.7266 138.285L29.7266 125.727C29.7441 125.234 29.9288 124.825 30.2806 124.5C30.6324 124.175 31.0545 124.012 31.5469 124.012L42.6275 124.012C44.1753 124.065 45.3449 124.43 46.1364 125.107C46.9279 125.784 47.4995 126.549 47.8513 127.402C48.2031 128.255 48.3789 129.122 48.3789 130.001C48.3789 130.916 48.2074 131.799 47.8645 132.652C47.5215 133.505 46.9499 134.27 46.1496 134.948C45.3493 135.625 44.3336 135.972 43.1024 135.99L36.4541 135.99C35.9616 135.99 35.5482 135.814 35.2141 135.462C34.8623 135.128 34.6865 134.715 34.6865 134.222C34.6865 133.73 34.8579 133.312 35.2009 132.969C35.5439 132.626 35.9616 132.454 36.4541 132.454L43.208 132.454C43.5421 132.454 43.8323 132.318 44.0786 132.046C44.3249 131.773 44.5051 131.456 44.6194 131.096C44.7338 130.735 44.7909 130.379 44.7909 130.027C44.7909 129.658 44.7338 129.293 44.6194 128.932C44.5051 128.572 44.3249 128.255 44.0786 127.983C43.8323 127.71 43.5421 127.565 43.208 127.547L33.9741 127.547C33.5168 127.565 33.2882 127.793 33.2882 128.233L33.2882 138.285ZM53.4971 134.895C54.2886 135.572 55.4582 135.937 57.006 135.99L66.5564 135.99C67.0488 135.99 67.4622 135.831 67.7963 135.515C68.1481 135.198 68.324 134.811 68.324 134.354C68.324 133.914 68.1525 133.536 67.8095 133.22C67.4666 132.903 67.0488 132.745 66.5564 132.745L56.6894 132.745C56.3025 132.727 55.9638 132.591 55.6736 132.336C55.3834 132.081 55.1724 131.742 55.0405 131.32C54.9086 130.898 54.8426 130.467 54.8426 130.027C54.8426 129.623 54.9086 129.209 55.0405 128.787Q55.2218 128.207 55.6027 127.826L55.6027 127.826Q55.6374 127.791 55.6736 127.758C55.9638 127.495 56.3025 127.363 56.6894 127.363L66.5564 127.363C67.0488 127.363 67.4666 127.2 67.8095 126.875C68.1525 126.549 68.324 126.149 68.324 125.674C68.324 125.217 68.1481 124.83 67.7963 124.513C67.4622 124.179 67.0488 124.012 66.5564 124.012L56.5311 124.012C55.2999 124.03 54.2842 124.377 53.4839 125.054C52.6836 125.731 52.112 126.496 51.769 127.349C51.4261 128.202 51.2546 129.086 51.2546 130.001C51.2546 130.88 51.4304 131.747 51.7822 132.6C52.134 133.452 52.7056 134.218 53.4971 134.895ZM106.974 128.233L106.974 134.591C107.08 135.647 107.66 136.218 108.715 136.306C109.208 136.306 109.634 136.143 109.995 135.818C110.355 135.493 110.536 135.084 110.536 134.591L110.536 125.727C110.518 125.234 110.334 124.825 109.982 124.5C109.63 124.175 109.208 124.012 108.715 124.012L97.6348 124.012C96.0871 124.065 94.9174 124.43 94.126 125.107C93.3345 125.784 92.7629 126.549 92.4111 127.402C92.0593 128.255 91.8835 129.122 91.8835 130.001C91.8835 130.916 92.0549 131.799 92.3979 132.652C92.7409 133.505 93.3125 134.27 94.1128 134.948C94.9131 135.625 95.9288 135.972 97.1599 135.99L103.808 135.99C104.301 135.99 104.714 135.814 105.048 135.462C105.4 135.128 105.576 134.715 105.576 134.222C105.576 133.73 105.404 133.312 105.061 132.969C104.718 132.626 104.301 132.454 103.808 132.454L97.0544 132.454C96.7203 132.454 96.4301 132.318 96.1838 132.046C95.9375 131.773 95.7573 131.456 95.643 131.096C95.5286 130.735 95.4715 130.379 95.4715 130.027C95.4715 129.658 95.5286 129.293 95.643 128.932C95.7573 128.572 95.9375 128.255 96.1838 127.983C96.4301 127.71 96.7203 127.565 97.0544 127.547L106.288 127.547C106.746 127.565 106.974 127.793 106.974 128.233ZM137.077 126.65C137.428 126.351 137.604 125.982 137.604 125.542Q137.604 125.281 137.517 125.054Q137.392 124.73 137.09 124.474C136.747 124.184 136.329 124.038 135.837 124.038L125.257 124.038C125.169 124.038 125.037 124.047 124.861 124.065C123.841 124.1 123.001 124.315 122.342 124.711C121.682 125.107 121.207 125.573 120.917 126.109C120.627 126.646 120.482 127.187 120.482 127.732C120.482 128.277 120.623 128.822 120.904 129.368C121.185 129.913 121.66 130.392 122.329 130.806C122.997 131.219 123.841 131.434 124.861 131.452L133.515 131.452C133.779 131.47 133.994 131.518 134.161 131.597C134.328 131.676 134.456 131.782 134.544 131.914C134.632 132.046 134.676 132.138 134.676 132.191C134.676 132.296 134.632 132.402 134.544 132.507C134.456 132.613 134.328 132.71 134.161 132.797C133.994 132.885 133.779 132.921 133.515 132.903L122.645 132.903C122.153 132.903 121.739 133.044 121.405 133.325C121.054 133.624 120.878 133.993 120.878 134.433Q120.878 134.694 120.965 134.922Q121.09 135.246 121.392 135.502C121.735 135.792 122.153 135.937 122.645 135.937L132.882 135.937C132.97 135.937 133.11 135.928 133.304 135.911C134.412 135.911 135.322 135.704 136.034 135.291C136.747 134.877 137.261 134.394 137.578 133.84C137.894 133.285 138.053 132.736 138.053 132.191C138.053 131.628 137.899 131.069 137.591 130.515C137.283 129.961 136.769 129.478 136.048 129.064C135.326 128.651 134.412 128.436 133.304 128.418L124.677 128.418C124.448 128.4 124.263 128.352 124.123 128.273C123.982 128.194 123.876 128.106 123.806 128.009C123.736 127.912 123.701 127.82 123.701 127.732C123.701 127.662 123.736 127.578 123.806 127.481C123.876 127.385 123.982 127.292 124.123 127.204C124.263 127.116 124.448 127.072 124.677 127.072L135.837 127.072C136.329 127.072 136.742 126.932 137.077 126.65ZM67.5589 130.819C67.8579 130.573 68.0074 130.282 68.0074 129.948C68.0074 129.632 67.8667 129.355 67.5853 129.117C67.3039 128.88 66.9609 128.761 66.5564 128.761L57.9293 128.761C57.5248 128.761 57.1818 128.875 56.9004 129.104C56.619 129.35 56.4783 129.632 56.4783 129.948C56.4783 130.282 56.619 130.568 56.9004 130.806C57.1818 131.043 57.5248 131.162 57.9293 131.162L66.5564 131.162C66.9609 131.162 67.2951 131.047 67.5589 130.819Z" fill="rgb(98,116,142)" fill-rule="evenodd" />
</svg>
