<svg viewBox="0 0 147.608 128" xmlns="http://www.w3.org/2000/svg" xmlns:xlink="http://www.w3.org/1999/xlink" width="147.608398" height="128.000000" fill="none" customFrame="#000000">
	<rect id="homepage_logo-01" width="147.608215" height="128.000000" x="0.000000" y="0.000000" />
	<g id="Group 78">
		<path id="Vector 220" d="M101.273 0.00203699C92.5688 -0.0496153 84.8313 4.29379 79.9929 11.0274L96.9342 30.0045C98.2897 31.5231 98.1098 33.8116 96.5322 35.1163C95.8214 35.7044 94.948 35.992 94.0788 35.992C93.0188 35.992 91.9654 35.5637 91.2208 34.7294C86.1728 29.074 81.1247 23.4195 76.0758 17.7642C73.2922 14.6461 70.5093 11.528 67.7257 8.40992C65.7024 6.14367 63.8788 3.62153 61.0332 2.24525C57.8046 0.683823 54.0122 -0.0202244 50.4195 0.000436498C33.2925 0.101365 20.681 18.3459 24.4528 35.4087C26.3325 43.9136 32.6701 50.8292 37.7065 57.5095C44.139 66.0422 56.6753 78.1427 65.6198 86.4099C71.4546 91.8038 80.2389 91.8038 86.0745 86.4099C95.0182 78.1427 107.555 66.0422 113.987 57.5095C119.023 50.8291 125.36 43.9136 127.241 35.4087C131.012 18.3475 118.4 0.103741 101.273 0.00203699Z" fill="rgb(230,0,118)" fill-opacity="0" fill-rule="nonzero" />
		<path id="Vector 220" d="M89.9405 33.295C90.3672 33.7731 90.794 34.2512 91.2208 34.7294C91.9654 35.5637 93.0188 35.992 94.0788 35.992C94.948 35.992 95.8214 35.7044 96.5322 35.1163C98.1098 33.8116 98.2897 31.5231 96.9342 30.0045L95.3062 28.1809L79.9929 11.0274C80.1106 10.8636 80.23 10.7013 80.3511 10.5403C85.2082 4.08509 92.7806 -0.048359 101.273 0.00203699C118.4 0.103741 131.012 18.3475 127.241 35.4087C125.36 43.9136 119.023 50.8291 113.987 57.5095C107.555 66.0422 95.0182 78.1427 86.0745 86.4099C80.2389 91.8038 71.4546 91.8038 65.6198 86.4099C56.6753 78.1427 44.139 66.0422 37.7065 57.5095C32.6701 50.8292 26.3325 43.9136 24.4528 35.4087C20.681 18.3459 33.2925 0.101365 50.4195 0.000436498C54.0122 -0.0202244 57.8046 0.683823 61.0332 2.24525C63.8788 3.62153 65.7024 6.14367 67.7257 8.40992C68.5193 9.29888 69.3129 10.1878 70.1064 11.0768C72.0962 13.3059 74.0858 15.5351 76.0758 17.7642C80.6978 22.9414 85.3192 28.1179 89.9405 33.295ZM90.932 11.2683C91.3469 10.9744 91.7726 10.6988 92.2091 10.4416C92.4454 10.3023 92.6849 10.1684 92.9276 10.0399C93.8039 9.57577 94.7062 9.19005 95.6345 8.88274C96.0487 8.74561 96.4681 8.62409 96.8926 8.51819C97.3597 8.40167 97.8301 8.30486 98.3036 8.22776C99.2644 8.07132 100.238 7.99604 101.226 8.0019C101.983 8.0064 102.733 8.06372 103.475 8.17388C104.104 8.2673 104.728 8.39872 105.346 8.56813C106.659 8.92808 107.929 9.45429 109.157 10.1468C110.382 10.8372 111.538 11.6771 112.624 12.6665C113.716 13.6606 114.708 14.7772 115.599 16.0161C115.785 16.2747 115.965 16.5369 116.14 16.8029C116.808 17.8201 117.395 18.8909 117.901 20.0153C118.366 21.0496 118.752 22.1065 119.058 23.1859C119.175 23.6004 119.281 24.0183 119.376 24.4394C119.711 25.9387 119.889 27.4402 119.909 28.9438C119.91 28.982 119.91 29.0202 119.91 29.0584C119.921 30.4015 119.806 31.7212 119.565 33.0173C119.523 33.2394 119.478 33.4608 119.429 33.6816C119.17 34.853 118.765 36.0631 118.213 37.3119C117.683 38.5106 117.002 39.7809 116.169 41.1229C115.429 42.315 114.516 43.6453 113.431 45.1136C112.98 45.7246 112.461 46.4106 111.874 47.1716C111.514 47.6389 110.969 48.3403 110.238 49.2758C109.056 50.7881 108.177 51.9274 107.599 52.6937C104.919 56.2483 100.812 60.8307 95.2774 66.4409C91.0365 70.7396 86.1588 75.4377 80.6444 80.5351C80.0976 81.0405 79.5037 81.4485 78.8626 81.7593C78.6917 81.8421 78.5174 81.918 78.3398 81.987C77.9136 82.1526 77.4797 82.2743 77.038 82.3521C76.647 82.4209 76.25 82.4553 75.8469 82.4553C75.4429 82.4553 75.0452 82.4208 74.6534 82.3516C74.2126 82.2739 73.7796 82.1524 73.3542 81.9871C73.1793 81.9191 73.0076 81.8444 72.8392 81.763C72.1953 81.4519 71.5989 81.0425 71.0499 80.535C65.5361 75.4387 60.6582 70.7407 56.4162 66.4408C50.8816 60.8308 46.7744 56.2484 44.0945 52.6935C43.5165 51.9269 42.6365 50.7872 41.4546 49.2745C40.7234 48.3386 40.1779 47.6372 39.8181 47.1704C39.2319 46.4095 38.713 45.7236 38.2614 45.1126C37.1763 43.6444 36.2639 42.3143 35.5241 41.1223C34.6914 39.7805 34.0101 38.5103 33.4804 37.3118C32.9285 36.0633 32.5231 34.8533 32.2643 33.682C32.2135 33.4524 32.1668 33.222 32.124 32.9909C31.8858 31.7028 31.7721 30.3917 31.7829 29.0575C31.7833 29.0183 31.7837 28.9791 31.7842 28.9398C31.8046 27.4371 31.9824 25.9365 32.3175 24.438C32.412 24.0155 32.5183 23.5964 32.6363 23.1806C32.9424 22.1024 33.3277 21.0468 33.7921 20.0136C34.2975 18.8892 34.8845 17.8184 35.5531 16.8012C35.7279 16.5352 35.9084 16.2728 36.0944 16.0142C36.9852 14.7752 37.9765 13.6587 39.0684 12.6646C40.1551 11.6752 41.3107 10.8353 42.5352 10.1449C43.7634 9.45243 45.034 8.92626 46.3468 8.56636C46.9751 8.39413 47.6091 8.26118 48.2488 8.16752C48.9802 8.06044 49.7191 8.0047 50.4655 8.0003C51.7633 7.99284 53.0277 8.11509 54.2586 8.36705C55.4816 8.6174 56.5788 8.97742 57.55 9.44712C57.8558 9.59504 58.2177 9.86613 58.6356 10.2604C58.8903 10.5006 59.183 10.8032 59.5138 11.168C59.7498 11.4283 60.1199 11.8513 60.6242 12.4372C61.1146 13.0069 61.4924 13.4403 61.7576 13.7374L65.8757 18.3507L70.108 23.0919L80.1121 34.298L85.2521 40.0562C85.5445 40.3838 85.8532 40.6931 86.1783 40.9842C86.4954 41.2682 86.828 41.5348 87.1763 41.784C87.4801 42.0015 87.793 42.2037 88.1147 42.3905C88.515 42.623 88.929 42.8317 89.3569 43.0167C89.6868 43.1593 90.0218 43.2865 90.3619 43.3982C90.7941 43.5401 91.2344 43.6571 91.683 43.749C92.0642 43.8272 92.4474 43.8865 92.8326 43.9269C93.2457 43.9703 93.6611 43.992 94.0788 43.992C94.7902 43.992 95.4906 43.9303 96.1799 43.8068C96.7973 43.6962 97.4058 43.536 98.0055 43.3263C98.6862 43.0883 99.3347 42.7938 99.951 42.4428C100.54 42.1072 101.1 41.7199 101.631 41.281C102.3 40.7275 102.895 40.1161 103.415 39.4466C103.849 38.8875 104.231 38.2879 104.561 37.6479C104.92 36.9513 105.204 36.2333 105.413 35.4941C105.617 34.7723 105.749 34.0302 105.808 33.2678C105.87 32.4907 105.854 31.7231 105.761 30.9649C105.668 30.2128 105.5 29.4701 105.257 28.7366C105.026 28.0437 104.736 27.3839 104.387 26.7573C103.975 26.0176 103.48 25.3242 102.902 24.6769L90.932 11.2683Z" fill="rgb(230,0,118)" fill-rule="evenodd" />
	</g>
	<path id="Vector 229" d="M108.078 119.034C108.078 117.805 108.31 116.658 108.774 115.594C109.238 114.531 109.909 113.607 110.789 112.823C111.669 112.039 112.743 111.422 114.013 110.973C115.283 110.524 116.72 110.3 118.325 110.3C119.731 110.3 121.021 110.441 122.195 110.725C123.369 111.008 124.461 111.441 125.469 112.022L123.857 114.672C123.555 114.474 123.207 114.297 122.814 114.142C122.42 113.988 122 113.857 121.555 113.75C121.109 113.644 120.649 113.561 120.175 113.502C119.7 113.443 119.231 113.414 118.767 113.414C117.648 113.414 116.65 113.552 115.774 113.828C114.898 114.104 114.16 114.49 113.56 114.987C112.961 115.484 112.504 116.077 112.191 116.765C111.878 117.453 111.722 118.209 111.722 119.034C111.722 119.888 111.884 120.672 112.208 121.386C112.532 122.1 113.001 122.716 113.616 123.235C114.23 123.754 114.981 124.159 115.868 124.45C116.755 124.741 117.758 124.886 118.877 124.886C119.385 124.886 119.889 124.849 120.39 124.776C120.89 124.702 121.374 124.601 121.842 124.472C122.309 124.343 122.76 124.189 123.195 124.008C123.629 123.828 124.034 123.631 124.409 123.418L126.021 126.068C125.079 126.671 123.99 127.144 122.753 127.487Q120.898 128 118.811 128C117.037 128 115.48 127.77 114.14 127.31C112.8 126.85 111.682 126.217 110.783 125.411C109.885 124.605 109.21 123.655 108.757 122.562C108.305 121.469 108.078 120.293 108.078 119.034ZM0 110.51L3.50028 110.51L9.77209 116.803L16.0439 110.51L19.5442 110.51L19.5442 127.768L16.0439 127.768L16.0439 115.357L9.77209 121.397L3.50028 115.357L3.50028 127.768L0 127.768L0 110.51ZM24.4578 110.51L39.1546 110.51L39.1546 113.579L27.9581 113.579L27.9581 117.024L37.8737 117.024L37.8737 119.906L27.9581 119.906L27.9581 124.709L39.3865 124.709L39.3865 127.768L24.4578 127.768L24.4578 110.51ZM43.2732 110.51L49.6002 110.51C51.4479 110.51 53.0527 110.708 54.4145 111.106C55.7764 111.503 56.9045 112.072 57.7989 112.812C58.6933 113.552 59.3595 114.45 59.7974 115.506C60.2354 116.562 60.4544 117.75 60.4544 119.067C60.4544 120.318 60.2373 121.476 59.803 122.54C59.3686 123.603 58.7061 124.524 57.8154 125.3C56.9247 126.077 55.7985 126.684 54.4366 127.122C53.0748 127.56 51.47 127.779 49.6223 127.779L43.2732 127.768L43.2732 110.51ZM63.5241 110.51L67.0465 110.51L67.0465 127.768L63.5241 127.768L63.5241 110.51ZM76.7081 113.579L70.337 113.579L70.337 110.51L86.5796 110.51L86.5796 113.579L80.2084 113.579L80.2084 127.768L76.7081 127.768L76.7081 113.579ZM90.3118 110.51L105.009 110.51L105.009 113.579L93.812 113.579L93.812 117.024L103.728 117.024L103.728 119.906L93.812 119.906L93.812 124.709L105.24 124.709L105.24 127.768L90.3118 127.768L90.3118 110.51ZM129.864 110.51L133.364 110.51L133.364 115.015L144.097 115.015L144.097 110.51L147.608 110.51L147.608 127.768L144.097 127.768L144.097 118.007L133.364 118.007L133.364 127.768L129.864 127.768L129.864 110.51ZM50.4615 124.743C51.5068 124.743 52.4233 124.608 53.2109 124.34C53.9986 124.071 54.6556 123.69 55.1819 123.197C55.7082 122.703 56.1039 122.107 56.3689 121.408C56.6339 120.709 56.7664 119.928 56.7664 119.067C56.7664 118.22 56.6339 117.457 56.3689 116.776C56.1039 116.095 55.7082 115.517 55.1819 115.042C54.6556 114.568 53.9986 114.201 53.2109 113.944C52.4233 113.686 51.5068 113.557 50.4615 113.557L46.7735 113.557L46.7735 124.743L50.4615 124.743Z" fill="rgb(24,24,27)" fill-rule="evenodd" />
</svg>
